<svg xmlns="http://www.w3.org/2000/svg" xmlns:xlink="http://www.w3.org/1999/xlink" contentStyleType="text/css" height="424px" preserveAspectRatio="none" style="width:535px;height:424px;background:#FFFFFF;" version="1.1" viewBox="0 0 535 424" width="535px" zoomAndPan="magnify"><defs/><g><!--class ServerResponse--><g id="elem_ServerResponse"><rect codeLine="1" fill="#F1F1F1" height="80.5938" id="ServerResponse" rx="2.5" ry="2.5" style="stroke:#181818;stroke-width:0.5;" width="334.2051" x="108.53" y="7"/><ellipse cx="214.4939" cy="23" fill="#ADD1B2" rx="11" ry="11" style="stroke:#181818;stroke-width:1;"/><path d="M217.4626,28.6406 Q216.8845,28.9375 216.2439,29.0781 Q215.6032,29.2344 214.9001,29.2344 Q212.4001,29.2344 211.072,27.5938 Q209.7595,25.9375 209.7595,22.8125 Q209.7595,19.6875 211.072,18.0313 Q212.4001,16.375 214.9001,16.375 Q215.6032,16.375 216.2439,16.5313 Q216.9001,16.6875 217.4626,16.9844 L217.4626,19.7031 Q216.8376,19.125 216.2439,18.8594 Q215.6501,18.5781 215.0251,18.5781 Q213.6814,18.5781 212.9939,19.6563 Q212.3064,20.7188 212.3064,22.8125 Q212.3064,24.9063 212.9939,25.9844 Q213.6814,27.0469 215.0251,27.0469 Q215.6501,27.0469 216.2439,26.7813 Q216.8376,26.5 217.4626,25.9219 L217.4626,28.6406 Z " fill="#000000"/><text fill="#000000" font-family="sans-serif" font-size="14" lengthAdjust="spacing" textLength="113.7773" x="234.9939" y="27.8467">ServerResponse</text><line style="stroke:#181818;stroke-width:0.5;" x1="109.53" x2="441.7351" y1="39" y2="39"/><rect fill="none" height="6" style="stroke:#C82930;stroke-width:1;" width="6" x="116.53" y="49.6484"/><text fill="#000000" font-family="sans-serif" font-size="14" lengthAdjust="spacing" textLength="172.2041" x="128.53" y="55.9951">coefficients: Coefficients</text><rect fill="none" height="6" style="stroke:#C82930;stroke-width:1;" width="6" x="116.53" y="65.9453"/><text fill="#000000" font-family="sans-serif" font-size="14" lengthAdjust="spacing" textLength="308.2051" x="128.53" y="72.292">seriesRepresentation: SeriesRepresentation</text><line style="stroke:#181818;stroke-width:0.5;" x1="109.53" x2="441.7351" y1="79.5938" y2="79.5938"/></g><!--class Coefficients--><g id="elem_Coefficients"><rect codeLine="6" fill="#F1F1F1" height="80.5938" id="Coefficients" rx="2.5" ry="2.5" style="stroke:#181818;stroke-width:0.5;" width="259.2627" x="7" y="147.59"/><ellipse cx="91.1025" cy="163.59" fill="#ADD1B2" rx="11" ry="11" style="stroke:#181818;stroke-width:1;"/><path d="M94.0713,169.2306 Q93.4932,169.5275 92.8525,169.6681 Q92.2119,169.8244 91.5088,169.8244 Q89.0088,169.8244 87.6807,168.1838 Q86.3682,166.5275 86.3682,163.4025 Q86.3682,160.2775 87.6807,158.6213 Q89.0088,156.965 91.5088,156.965 Q92.2119,156.965 92.8525,157.1213 Q93.5088,157.2775 94.0713,157.5744 L94.0713,160.2931 Q93.4463,159.715 92.8525,159.4494 Q92.2588,159.1681 91.6338,159.1681 Q90.29,159.1681 89.6025,160.2463 Q88.915,161.3088 88.915,163.4025 Q88.915,165.4963 89.6025,166.5744 Q90.29,167.6369 91.6338,167.6369 Q92.2588,167.6369 92.8525,167.3713 Q93.4463,167.09 94.0713,166.5119 L94.0713,169.2306 Z " fill="#000000"/><text fill="#000000" font-family="sans-serif" font-size="14" lengthAdjust="spacing" textLength="82.5576" x="111.6025" y="168.4367">Coefficients</text><line style="stroke:#181818;stroke-width:0.5;" x1="8" x2="265.2627" y1="179.59" y2="179.59"/><rect fill="none" height="6" style="stroke:#C82930;stroke-width:1;" width="6" x="15" y="190.2384"/><text fill="#000000" font-family="sans-serif" font-size="14" lengthAdjust="spacing" textLength="233.2627" x="27" y="196.5851">formatMaxima: CoefficientValues</text><rect fill="none" height="6" style="stroke:#C82930;stroke-width:1;" width="6" x="15" y="206.5353"/><text fill="#000000" font-family="sans-serif" font-size="14" lengthAdjust="spacing" textLength="203.6631" x="27" y="212.882">formatTex: CoefficientValues</text><line style="stroke:#181818;stroke-width:0.5;" x1="8" x2="265.2627" y1="220.1838" y2="220.1838"/></g><!--class CoefficientValues--><g id="elem_CoefficientValues"><rect codeLine="11" fill="#F1F1F1" height="129.4844" id="CoefficientValues" rx="2.5" ry="2.5" style="stroke:#181818;stroke-width:0.5;" width="154.0898" x="59.59" y="288.19"/><ellipse cx="74.59" cy="304.19" fill="#ADD1B2" rx="11" ry="11" style="stroke:#181818;stroke-width:1;"/><path d="M77.5588,309.8306 Q76.9806,310.1275 76.34,310.2681 Q75.6994,310.4244 74.9963,310.4244 Q72.4963,310.4244 71.1681,308.7838 Q69.8556,307.1275 69.8556,304.0025 Q69.8556,300.8775 71.1681,299.2213 Q72.4963,297.565 74.9963,297.565 Q75.6994,297.565 76.34,297.7213 Q76.9963,297.8775 77.5588,298.1744 L77.5588,300.8931 Q76.9338,300.315 76.34,300.0494 Q75.7463,299.7681 75.1213,299.7681 Q73.7775,299.7681 73.09,300.8463 Q72.4025,301.9088 72.4025,304.0025 Q72.4025,306.0963 73.09,307.1744 Q73.7775,308.2369 75.1213,308.2369 Q75.7463,308.2369 76.34,307.9713 Q76.9338,307.69 77.5588,307.1119 L77.5588,309.8306 Z " fill="#000000"/><text fill="#000000" font-family="sans-serif" font-size="14" lengthAdjust="spacing" textLength="122.0898" x="88.59" y="309.0367">CoefficientValues</text><line style="stroke:#181818;stroke-width:0.5;" x1="60.59" x2="212.6798" y1="320.19" y2="320.19"/><rect fill="none" height="6" style="stroke:#C82930;stroke-width:1;" width="6" x="67.59" y="330.8384"/><text fill="#000000" font-family="sans-serif" font-size="14" lengthAdjust="spacing" textLength="68.4346" x="79.59" y="337.1851">a0: String</text><rect fill="none" height="6" style="stroke:#C82930;stroke-width:1;" width="6" x="67.59" y="347.1353"/><text fill="#000000" font-family="sans-serif" font-size="14" lengthAdjust="spacing" textLength="68.4004" x="79.59" y="353.482">an: String</text><rect fill="none" height="6" style="stroke:#C82930;stroke-width:1;" width="6" x="67.59" y="363.4322"/><text fill="#000000" font-family="sans-serif" font-size="14" lengthAdjust="spacing" textLength="68.708" x="79.59" y="369.7789">bn: String</text><rect fill="none" height="6" style="stroke:#C82930;stroke-width:1;" width="6" x="67.59" y="379.7291"/><text fill="#000000" font-family="sans-serif" font-size="14" lengthAdjust="spacing" textLength="67.5527" x="79.59" y="386.0757">c0: String</text><rect fill="none" height="6" style="stroke:#C82930;stroke-width:1;" width="6" x="67.59" y="396.0259"/><text fill="#000000" font-family="sans-serif" font-size="14" lengthAdjust="spacing" textLength="67.5186" x="79.59" y="402.3726">cn: String</text><line style="stroke:#181818;stroke-width:0.5;" x1="60.59" x2="212.6798" y1="409.6744" y2="409.6744"/></g><!--class SeriesRepresentation--><g id="elem_SeriesRepresentation"><rect codeLine="19" fill="#F1F1F1" height="80.5938" id="SeriesRepresentation" rx="2.5" ry="2.5" style="stroke:#181818;stroke-width:0.5;" width="226.8877" x="301.19" y="147.59"/><ellipse cx="336.2475" cy="163.59" fill="#ADD1B2" rx="11" ry="11" style="stroke:#181818;stroke-width:1;"/><path d="M339.2163,169.2306 Q338.6381,169.5275 337.9975,169.6681 Q337.3569,169.8244 336.6538,169.8244 Q334.1538,169.8244 332.8256,168.1838 Q331.5131,166.5275 331.5131,163.4025 Q331.5131,160.2775 332.8256,158.6213 Q334.1538,156.965 336.6538,156.965 Q337.3569,156.965 337.9975,157.1213 Q338.6538,157.2775 339.2163,157.5744 L339.2163,160.2931 Q338.5913,159.715 337.9975,159.4494 Q337.4038,159.1681 336.7788,159.1681 Q335.435,159.1681 334.7475,160.2463 Q334.06,161.3088 334.06,163.4025 Q334.06,165.4963 334.7475,166.5744 Q335.435,167.6369 336.7788,167.6369 Q337.4038,167.6369 337.9975,167.3713 Q338.5913,167.09 339.2163,166.5119 L339.2163,169.2306 Z " fill="#000000"/><text fill="#000000" font-family="sans-serif" font-size="14" lengthAdjust="spacing" textLength="150.3154" x="354.7047" y="168.4367">SeriesRepresentation</text><line style="stroke:#181818;stroke-width:0.5;" x1="302.19" x2="527.0777" y1="179.59" y2="179.59"/><rect fill="none" height="6" style="stroke:#C82930;stroke-width:1;" width="6" x="309.19" y="190.2384"/><text fill="#000000" font-family="sans-serif" font-size="14" lengthAdjust="spacing" textLength="200.8877" x="321.19" y="196.5851">formatMaxima: List&lt;String&gt;</text><rect fill="none" height="6" style="stroke:#C82930;stroke-width:1;" width="6" x="309.19" y="206.5353"/><text fill="#000000" font-family="sans-serif" font-size="14" lengthAdjust="spacing" textLength="171.2881" x="321.19" y="212.882">formatTex: List&lt;String&gt;</text><line style="stroke:#181818;stroke-width:0.5;" x1="302.19" x2="527.0777" y1="220.1838" y2="220.1838"/></g><!--reverse link ServerResponse to Coefficients--><g id="link_ServerResponse_Coefficients"><path codeLine="24" d="M227.3033,96.4839 C208.6933,115.0439 195.08,128.61 176.47,147.17 " fill="none" id="ServerResponse-backto-Coefficients" style="stroke:#181818;stroke-width:1;"/><polygon fill="#181818" points="235.8,88.01,228.727,89.4147,227.3033,96.4839,234.3763,95.0792,235.8,88.01" style="stroke:#181818;stroke-width:1;"/></g><!--reverse link ServerResponse to SeriesRepresentation--><g id="link_ServerResponse_SeriesRepresentation"><path codeLine="25" d="M323.9567,96.4839 C342.5667,115.0439 356.18,128.61 374.79,147.17 " fill="none" id="ServerResponse-backto-SeriesRepresentation" style="stroke:#181818;stroke-width:1;"/><polygon fill="#181818" points="315.46,88.01,316.8837,95.0792,323.9567,96.4839,322.533,89.4147,315.46,88.01" style="stroke:#181818;stroke-width:1;"/></g><!--reverse link Coefficients to CoefficientValues--><g id="link_Coefficients_CoefficientValues"><path codeLine="26" d="M136.63,240.36 C136.63,258.17 136.63,267.67 136.63,287.71 " fill="none" id="Coefficients-backto-CoefficientValues" style="stroke:#181818;stroke-width:1;"/><polygon fill="#181818" points="136.63,228.36,132.63,234.36,136.63,240.36,140.63,234.36,136.63,228.36" style="stroke:#181818;stroke-width:1;"/></g><!--SRC=[RL512i8m4Bpd5JaB1Sz5l7ZLInNlQzZAGfkKR2m5yU_MfcWsvZWxavdTYUc0MP_HZ-WRvC5PHlrKMbVQE6nRCeGsSAqF2LfeHa_83GuUUHv286VhZzFVLBsKCajEQhAcjCxt44umKGyYvGhT0pdHN70g2KhcaLeJO3kl5JpPUuHMm9k4HehDZ_tcb4ui7dCa3hluUf_V8RZPElk1JLN9nWjyiMhHSEOIMta3]--></g></svg>