<svg xmlns="http://www.w3.org/2000/svg" xmlns:xlink="http://www.w3.org/1999/xlink" contentStyleType="text/css" height="408px" preserveAspectRatio="none" style="width:251px;height:408px;background:#FFFFFF;" version="1.1" viewBox="0 0 251 408" width="251px" zoomAndPan="magnify"><defs/><g><!--class ClientRequest--><g id="elem_ClientRequest"><rect codeLine="1" fill="#F1F1F1" height="113.1875" id="ClientRequest" rx="2.5" ry="2.5" style="stroke:#181818;stroke-width:0.5;" width="237.8594" x="7" y="7"/><ellipse cx="72.666" cy="23" fill="#ADD1B2" rx="11" ry="11" style="stroke:#181818;stroke-width:1;"/><path d="M75.6348,28.6406 Q75.0566,28.9375 74.416,29.0781 Q73.7754,29.2344 73.0723,29.2344 Q70.5723,29.2344 69.2441,27.5938 Q67.9316,25.9375 67.9316,22.8125 Q67.9316,19.6875 69.2441,18.0313 Q70.5723,16.375 73.0723,16.375 Q73.7754,16.375 74.416,16.5313 Q75.0723,16.6875 75.6348,16.9844 L75.6348,19.7031 Q75.0098,19.125 74.416,18.8594 Q73.8223,18.5781 73.1973,18.5781 Q71.8535,18.5781 71.166,19.6563 Q70.4785,20.7188 70.4785,22.8125 Q70.4785,24.9063 71.166,25.9844 Q71.8535,27.0469 73.1973,27.0469 Q73.8223,27.0469 74.416,26.7813 Q75.0098,26.5 75.6348,25.9219 L75.6348,28.6406 Z " fill="#000000"/><text fill="#000000" font-family="sans-serif" font-size="14" lengthAdjust="spacing" textLength="98.0273" x="93.166" y="27.8467">ClientRequest</text><line style="stroke:#181818;stroke-width:0.5;" x1="8" x2="243.8594" y1="39" y2="39"/><rect fill="none" height="6" style="stroke:#C82930;stroke-width:1;" width="6" x="15" y="49.6484"/><text fill="#000000" font-family="sans-serif" font-size="14" lengthAdjust="spacing" textLength="107.4268" x="27" y="55.9951">variable: String</text><rect fill="none" height="6" style="stroke:#C82930;stroke-width:1;" width="6" x="15" y="65.9453"/><text fill="#000000" font-family="sans-serif" font-size="14" lengthAdjust="spacing" textLength="126.7451" x="27" y="72.292">seriesType: String</text><rect fill="none" height="6" style="stroke:#C82930;stroke-width:1;" width="6" x="15" y="82.2422"/><text fill="#000000" font-family="sans-serif" font-size="14" lengthAdjust="spacing" textLength="153.7813" x="27" y="88.5889">extensionType: String</text><rect fill="none" height="6" style="stroke:#C82930;stroke-width:1;" width="6" x="15" y="98.5391"/><text fill="#000000" font-family="sans-serif" font-size="14" lengthAdjust="spacing" textLength="211.8594" x="27" y="104.8857">function: List&lt;FunctionPiece&gt;</text><line style="stroke:#181818;stroke-width:0.5;" x1="8" x2="243.8594" y1="112.1875" y2="112.1875"/></g><!--class FunctionPiece--><g id="elem_FunctionPiece"><rect codeLine="8" fill="#F1F1F1" height="80.5938" id="FunctionPiece" rx="2.5" ry="2.5" style="stroke:#181818;stroke-width:0.5;" width="153.0186" x="49.42" y="180.19"/><ellipse cx="74.9721" cy="196.19" fill="#ADD1B2" rx="11" ry="11" style="stroke:#181818;stroke-width:1;"/><path d="M77.9409,201.8306 Q77.3628,202.1275 76.7221,202.2681 Q76.0815,202.4244 75.3784,202.4244 Q72.8784,202.4244 71.5503,200.7838 Q70.2378,199.1275 70.2378,196.0025 Q70.2378,192.8775 71.5503,191.2213 Q72.8784,189.565 75.3784,189.565 Q76.0815,189.565 76.7221,189.7213 Q77.3784,189.8775 77.9409,190.1744 L77.9409,192.8931 Q77.3159,192.315 76.7221,192.0494 Q76.1284,191.7681 75.5034,191.7681 Q74.1596,191.7681 73.4721,192.8463 Q72.7846,193.9088 72.7846,196.0025 Q72.7846,198.0963 73.4721,199.1744 Q74.1596,200.2369 75.5034,200.2369 Q76.1284,200.2369 76.7221,199.9713 Q77.3159,199.69 77.9409,199.1119 L77.9409,201.8306 Z " fill="#000000"/><text fill="#000000" font-family="sans-serif" font-size="14" lengthAdjust="spacing" textLength="97.5693" x="91.3171" y="201.0367">FunctionPiece</text><line style="stroke:#181818;stroke-width:0.5;" x1="50.42" x2="201.4386" y1="212.19" y2="212.19"/><rect fill="none" height="6" style="stroke:#C82930;stroke-width:1;" width="6" x="57.42" y="222.8384"/><text fill="#000000" font-family="sans-serif" font-size="14" lengthAdjust="spacing" textLength="127.0186" x="69.42" y="229.1851">expression: String</text><rect fill="none" height="6" style="stroke:#C82930;stroke-width:1;" width="6" x="57.42" y="239.1353"/><text fill="#000000" font-family="sans-serif" font-size="14" lengthAdjust="spacing" textLength="116.1563" x="69.42" y="245.482">interval: Interval</text><line style="stroke:#181818;stroke-width:0.5;" x1="50.42" x2="201.4386" y1="252.7838" y2="252.7838"/></g><!--class Interval--><g id="elem_Interval"><rect codeLine="13" fill="#F1F1F1" height="80.5938" id="Interval" rx="2.5" ry="2.5" style="stroke:#181818;stroke-width:0.5;" width="102.3506" x="74.75" y="320.79"/><ellipse cx="97.2813" cy="336.79" fill="#ADD1B2" rx="11" ry="11" style="stroke:#181818;stroke-width:1;"/><path d="M100.2501,342.4306 Q99.672,342.7275 99.0313,342.8681 Q98.3907,343.0244 97.6876,343.0244 Q95.1876,343.0244 93.8595,341.3837 Q92.547,339.7275 92.547,336.6025 Q92.547,333.4775 93.8595,331.8212 Q95.1876,330.165 97.6876,330.165 Q98.3907,330.165 99.0313,330.3212 Q99.6876,330.4775 100.2501,330.7744 L100.2501,333.4931 Q99.6251,332.915 99.0313,332.6494 Q98.4376,332.3681 97.8126,332.3681 Q96.4688,332.3681 95.7813,333.4462 Q95.0938,334.5087 95.0938,336.6025 Q95.0938,338.6962 95.7813,339.7744 Q96.4688,340.8369 97.8126,340.8369 Q98.4376,340.8369 99.0313,340.5712 Q99.6251,340.29 100.2501,339.7119 L100.2501,342.4306 Z " fill="#000000"/><text fill="#000000" font-family="sans-serif" font-size="14" lengthAdjust="spacing" textLength="53.6143" x="112.955" y="341.6367">Interval</text><line style="stroke:#181818;stroke-width:0.5;" x1="75.75" x2="176.1006" y1="352.79" y2="352.79"/><rect fill="none" height="6" style="stroke:#C82930;stroke-width:1;" width="6" x="82.75" y="363.4384"/><text fill="#000000" font-family="sans-serif" font-size="14" lengthAdjust="spacing" textLength="76.3506" x="94.75" y="369.7851">start: Float</text><rect fill="none" height="6" style="stroke:#C82930;stroke-width:1;" width="6" x="82.75" y="379.7353"/><text fill="#000000" font-family="sans-serif" font-size="14" lengthAdjust="spacing" textLength="70.1162" x="94.75" y="386.082">end: Float</text><line style="stroke:#181818;stroke-width:0.5;" x1="75.75" x2="176.1006" y1="393.3837" y2="393.3837"/></g><!--reverse link ClientRequest to FunctionPiece--><g id="link_ClientRequest_FunctionPiece"><path codeLine="18" d="M125.93,132.52 C125.93,152.27 125.93,162.06 125.93,180.15 " fill="none" id="ClientRequest-backto-FunctionPiece" style="stroke:#181818;stroke-width:1;"/><polygon fill="#181818" points="125.93,120.52,121.93,126.52,125.93,132.52,129.93,126.52,125.93,120.52" style="stroke:#181818;stroke-width:1;"/><text fill="#000000" font-family="sans-serif" font-size="13" lengthAdjust="spacing" textLength="8.271" x="117.4591" y="140.4469">1</text><text fill="#000000" font-family="sans-serif" font-size="13" lengthAdjust="spacing" textLength="36.5625" x="86.8847" y="169.0063">many</text></g><!--reverse link FunctionPiece to Interval--><g id="link_FunctionPiece_Interval"><path codeLine="19" d="M125.93,273.2 C125.93,291.76 125.93,301.8 125.93,320.36 " fill="none" id="FunctionPiece-backto-Interval" style="stroke:#181818;stroke-width:1;"/><polygon fill="#181818" points="125.93,261.2,121.93,267.2,125.93,273.2,129.93,267.2,125.93,261.2" style="stroke:#181818;stroke-width:1;"/></g><!--SRC=[PKz12i903BplAy8UXHwy5l4Y50GFedvWNQC4rbGtQMaH_swjMtJnbfd9J2O-E15O1KBM7TuR58M70IYWTP7SCM09Uut4bv4KZ8How6yvZPqY2zNyfvmRzZe89Mn8T54bk2Nqk3HFO_nO8EDJ0Unk4KL6yqyYiM9iNIXXdQPlpCIa154NjOGgr4u_aNoQuE39lxPp2xEY07jrtDkyaSdxlTUcKoy0]--></g></svg>