<svg xmlns="http://www.w3.org/2000/svg" xmlns:xlink="http://www.w3.org/1999/xlink" contentStyleType="text/css" height="261px" preserveAspectRatio="none" style="width:1194px;height:261px;background:#FFFFFF;" version="1.1" viewBox="0 0 1194 261" width="1194px" zoomAndPan="magnify"><defs/><g><!--cluster Aplicaci?n--><g id="cluster_Aplicaci&#243;n"><path d="M107,6 L188.8828,6 A3.75,3.75 0 0 1 191.3828,8.5 L198.3828,28.2969 L1185.42,28.2969 A2.5,2.5 0 0 1 1187.92,30.7969 L1187.92,251.5 A2.5,2.5 0 0 1 1185.42,254 L107,254 A2.5,2.5 0 0 1 104.5,251.5 L104.5,8.5 A2.5,2.5 0 0 1 107,6 " fill="none" style="stroke:#000000;stroke-width:1.5;"/><line style="stroke:#000000;stroke-width:1.5;" x1="104.5" x2="198.3828" y1="28.2969" y2="28.2969"/><text fill="#000000" font-family="sans-serif" font-size="14" font-weight="bold" lengthAdjust="spacing" textLength="80.8828" x="108.5" y="20.9951">Aplicaci&#243;n</text></g><g id="elem_CU1"><ellipse cx="199.9395" cy="61.9979" fill="#F1F1F1" rx="79.4395" ry="18.2879" style="stroke:#181818;stroke-width:0.5;"/><text fill="#000000" font-family="sans-serif" font-size="14" lengthAdjust="spacing" textLength="117.1611" x="139.4786" y="65.4407">Ingresar Funci&#243;n</text></g><g id="elem_CU4"><ellipse cx="445.5545" cy="58.9989" fill="#F1F1F1" rx="75.9445" ry="17.5889" style="stroke:#181818;stroke-width:0.5;"/><text fill="#000000" font-family="sans-serif" font-size="14" lengthAdjust="spacing" textLength="108.4316" x="388.3387" y="62.7465">Validar Funci&#243;n</text></g><g id="elem_CU2"><ellipse cx="445.5474" cy="135.0035" fill="#F1F1F1" rx="106.1674" ry="23.6335" style="stroke:#181818;stroke-width:0.5;"/><text fill="#000000" font-family="sans-serif" font-size="14" lengthAdjust="spacing" textLength="177.5635" x="356.7656" y="137.8502">Seleccionar Tipo de Serie</text></g><g id="elem_CU3"><ellipse cx="445.5462" cy="216.0012" fill="#F1F1F1" rx="99.5062" ry="22.3012" style="stroke:#181818;stroke-width:0.5;"/><text fill="#000000" font-family="sans-serif" font-size="14" lengthAdjust="spacing" textLength="162.9688" x="364.0618" y="218.8479">Configurar Extensiones</text></g><g id="elem_CU5"><ellipse cx="715.8557" cy="134.9991" fill="#F1F1F1" rx="104.1457" ry="23.2291" style="stroke:#181818;stroke-width:0.5;"/><text fill="#000000" font-family="sans-serif" font-size="14" lengthAdjust="spacing" textLength="173.1543" x="629.2786" y="137.8458">Calcular Serie de Fourier</text></g><g id="elem_CU6"><ellipse cx="1025.9604" cy="188.0021" fill="#F1F1F1" rx="141.5104" ry="30.7021" style="stroke:#181818;stroke-width:0.5;"/><text fill="#000000" font-family="sans-serif" font-size="14" lengthAdjust="spacing" textLength="252.7656" x="899.5776" y="190.8488">Visualizar Resultados y Coeficientes</text></g><g id="elem_CU7"><ellipse cx="1025.9565" cy="91.0013" fill="#F1F1F1" rx="145.9565" ry="31.5913" style="stroke:#181818;stroke-width:0.5;"/><text fill="#000000" font-family="sans-serif" font-size="14" lengthAdjust="spacing" textLength="262.0557" x="894.9286" y="93.848">Visualizar e interactuar con la gr&#225;fica</text></g><!--entity Usuario--><g id="elem_Usuario"><ellipse cx="33" cy="112.85" fill="#F1F1F1" rx="16" ry="16" style="stroke:#181818;stroke-width:0.5;"/><path d="M33,132.85 C37,132.85 40,132.85 44,128.85 C52,128.85 60,136.85 60,144.85 L60,148.85 C60,152.85 56,156.85 52,156.85 L14,156.85 C10,156.85 6,152.85 6,148.85 L6,144.85 C6,136.85 14,128.85 22,128.85 C26,132.85 29,132.85 33,132.85 " fill="#F1F1F1" style="stroke:#181818;stroke-width:0.5;"/><text fill="#000000" font-family="sans-serif" font-size="14" lengthAdjust="spacing" textLength="53.2041" x="6.3979" y="170.3451">Usuario</text></g><!--link Usuario to CU1--><g id="link_Usuario_CU1"><path d="M60.87,123.11 C88.34,110.95 125.7432,94.3979 156.4332,80.8179 " fill="none" id="Usuario-to-CU1" style="stroke:#181818;stroke-width:1;"/><polygon fill="#181818" points="161.92,78.39,152.0712,78.3739,157.3476,80.4132,155.3083,85.6897,161.92,78.39" style="stroke:#181818;stroke-width:1;"/></g><!--link Usuario to CU2--><g id="link_Usuario_CU2"><path d="M60.94,135 C116.42,135 240.03,135 333.25,135 " fill="none" id="Usuario-to-CU2" style="stroke:#181818;stroke-width:1;"/><polygon fill="#181818" points="339.25,135,330.25,131,334.25,135,330.25,139,339.25,135" style="stroke:#181818;stroke-width:1;"/></g><!--link Usuario to CU3--><g id="link_Usuario_CU3"><path d="M60.94,140.31 C122.75,152.51 270.7035,181.6985 363.7035,200.0485 " fill="none" id="Usuario-to-CU3" style="stroke:#181818;stroke-width:1;stroke-dasharray:7.0,7.0;"/><polygon fill="#181818" points="369.59,201.21,361.5346,195.5434,364.6846,200.2421,359.9859,203.3921,369.59,201.21" style="stroke:#181818;stroke-width:1;"/></g><!--link CU1 to CU4--><g id="link_CU1_CU4"><path d="M279.7,61.03 C308.47,60.68 334.9205,60.3538 363.3805,60.0038 " fill="none" id="CU1-to-CU4" style="stroke:#181818;stroke-width:1;"/><polygon fill="#181818" points="369.38,59.93,360.3315,56.041,364.3804,59.9915,360.4299,64.0404,369.38,59.93" style="stroke:#181818;stroke-width:1;"/></g><!--link CU4 to CU5--><g id="link_CU4_CU5"><path d="M495.14,72.76 C538.48,85.04 596.4971,101.4749 644.1971,114.9849 " fill="none" id="CU4-to-CU5" style="stroke:#181818;stroke-width:1;"/><polygon fill="#181818" points="649.97,116.62,642.4007,110.3188,645.1592,115.2575,640.2206,118.016,649.97,116.62" style="stroke:#181818;stroke-width:1;"/></g><!--link CU2 to CU5--><g id="link_CU2_CU5"><path d="M552.21,135 C571.71,135 586.06,135 605.49,135 " fill="none" id="CU2-to-CU5" style="stroke:#181818;stroke-width:1;"/><polygon fill="#181818" points="611.49,135,602.49,131,606.49,135,602.49,139,611.49,135" style="stroke:#181818;stroke-width:1;"/></g><!--link CU3 to CU5--><g id="link_CU3_CU5"><path d="M506.43,197.92 C549.98,184.77 603.0462,168.7546 647.0862,155.4546 " fill="none" id="CU3-to-CU5" style="stroke:#181818;stroke-width:1;"/><polygon fill="#181818" points="652.83,153.72,643.0579,152.4927,648.0435,155.1655,645.3707,160.1511,652.83,153.72" style="stroke:#181818;stroke-width:1;"/></g><!--link CU5 to CU6--><g id="link_CU5_CU6"><path d="M799.43,149.2 C834.54,155.24 870.1068,161.3634 907.8568,167.8534 " fill="none" id="CU5-to-CU6" style="stroke:#181818;stroke-width:1;"/><polygon fill="#181818" points="913.77,168.87,905.5779,163.4029,908.8423,168.0228,904.2224,171.2873,913.77,168.87" style="stroke:#181818;stroke-width:1;"/></g><!--link CU5 to CU7--><g id="link_CU5_CU7"><path d="M804.32,122.51 C835.01,118.13 864.1302,113.968 897.1202,109.258 " fill="none" id="CU5-to-CU7" style="stroke:#181818;stroke-width:1;"/><polygon fill="#181818" points="903.06,108.41,893.585,105.7222,898.1102,109.1167,894.7157,113.6419,903.06,108.41" style="stroke:#181818;stroke-width:1;"/></g><!--SRC=[TP1DJiCm48NtFiMe-ov8cdQ7X28giIMK3M8nSgRfgAuT-KTG48VX31oX5sCQhD8KuONrdlMzyUY5BTiUFUu0TNI-YNj3W2yKt8wKChIE41ruxZOHMlQa8pkh1XPM8Q5dfrIFUeiTmKrlMAFcmvU5TmLoKY2DWM1oPpjF0Jqians02M20UdKrnXxHSFkNcesfXWnfBOi8-S2zWvQW8S-KyMACrywkkKjUwDlNI3P8aa9comiMZKv6o67USV3I9L4-uzN5lYmT67wJm3s5P2AsBi0UQaThramsdZwQ_viaOE6yb2fzWdOM34Bd3vyo0dDweJwKoeN3T7ezL3VsnQz_QZ5ig7qUtakb1CxG3DJn-Z6LwE9CboSjfifc3cTcyGq0]--></g></svg>