<svg xmlns="http://www.w3.org/2000/svg" xmlns:xlink="http://www.w3.org/1999/xlink" contentStyleType="text/css" height="1059px" preserveAspectRatio="none" style="width:1206px;height:1059px;background:#FFFFFF;" version="1.1" viewBox="0 0 1206 1059" width="1206px" zoomAndPan="magnify"><defs/><g><rect fill="#FFFFFF" height="893" style="stroke:#181818;stroke-width:1.0;" width="10" x="34.5547" y="79.5938"/><rect fill="#FFFFFF" height="841.6016" style="stroke:#181818;stroke-width:1.0;" width="10" x="411.7109" y="130.9922"/><rect fill="#FFFFFF" height="71.2656" style="stroke:#181818;stroke-width:1.0;" width="10" x="813.1577" y="250.5234"/><rect fill="#FFFFFF" height="71.2656" style="stroke:#181818;stroke-width:1.0;" width="10" x="813.1577" y="389.8594"/><rect fill="#FFFFFF" height="71.2656" style="stroke:#181818;stroke-width:1.0;" width="10" x="813.1577" y="505.0625"/><rect fill="#FFFFFF" height="71.2656" style="stroke:#181818;stroke-width:1.0;" width="10" x="813.1577" y="634.2656"/><rect fill="#FFFFFF" height="29.1328" style="stroke:#181818;stroke-width:1.0;" width="10" x="813.1577" y="857.0625"/><rect fill="none" height="525.4063" style="stroke:#000000;stroke-width:1.5;" width="845.6333" x="353.5303" y="188.125"/><rect fill="none" height="379.0703" style="stroke:#000000;stroke-width:1.5;" width="825.6333" x="363.5303" y="212.2578"/><rect fill="none" height="232.7344" style="stroke:#000000;stroke-width:1.5;" width="805.6333" x="373.5303" y="351.5938"/><rect fill="none" height="59.2656" style="stroke:#000000;stroke-width:1.5;" width="374.6572" x="373.5303" y="769.6641"/><line style="stroke:#181818;stroke-width:0.5;stroke-dasharray:5.0,5.0;" x1="39" x2="39" y1="69.5938" y2="990.5938"/><line style="stroke:#181818;stroke-width:0.5;stroke-dasharray:5.0,5.0;" x1="416.5303" x2="416.5303" y1="69.5938" y2="990.5938"/><line style="stroke:#181818;stroke-width:0.5;stroke-dasharray:5.0,5.0;" x1="817.6328" x2="817.6328" y1="69.5938" y2="990.5938"/><text fill="#000000" font-family="sans-serif" font-size="14" lengthAdjust="spacing" textLength="63.1094" x="5" y="49.9951">Frontend</text><text fill="#000000" font-family="sans-serif" font-size="14" lengthAdjust="spacing" textLength="54.4346" x="9.3374" y="66.292">Angular</text><path d="M19.0547,9 L19.0547,33 M19.0547,21 L36.0547,21 " fill="none" style="stroke:#181818;stroke-width:0.5;"/><ellipse cx="48.0547" cy="21" fill="#E2E2F0" rx="12" ry="12" style="stroke:#181818;stroke-width:0.5;"/><text fill="#000000" font-family="sans-serif" font-size="14" lengthAdjust="spacing" textLength="63.1094" x="5" y="1002.5889">Frontend</text><text fill="#000000" font-family="sans-serif" font-size="14" lengthAdjust="spacing" textLength="54.4346" x="9.3374" y="1018.8857">Angular</text><path d="M19.0547,1026.1875 L19.0547,1050.1875 M19.0547,1038.1875 L36.0547,1038.1875 " fill="none" style="stroke:#181818;stroke-width:0.5;"/><ellipse cx="48.0547" cy="1038.1875" fill="#E2E2F0" rx="12" ry="12" style="stroke:#181818;stroke-width:0.5;"/><text fill="#000000" font-family="sans-serif" font-size="14" lengthAdjust="spacing" textLength="60.3613" x="383.5303" y="49.9951">Backend</text><text fill="#000000" font-family="sans-serif" font-size="14" lengthAdjust="spacing" textLength="49.5537" x="388.9341" y="66.292">NodeJS</text><ellipse cx="416.7109" cy="21" fill="#E2E2F0" rx="12" ry="12" style="stroke:#181818;stroke-width:0.5;"/><line style="stroke:#181818;stroke-width:0.5;" x1="404.7109" x2="428.7109" y1="35" y2="35"/><text fill="#000000" font-family="sans-serif" font-size="14" lengthAdjust="spacing" textLength="60.3613" x="383.5303" y="1002.5889">Backend</text><text fill="#000000" font-family="sans-serif" font-size="14" lengthAdjust="spacing" textLength="49.5537" x="388.9341" y="1018.8857">NodeJS</text><ellipse cx="416.7109" cy="1038.1875" fill="#E2E2F0" rx="12" ry="12" style="stroke:#181818;stroke-width:0.5;"/><line style="stroke:#181818;stroke-width:0.5;" x1="404.7109" x2="428.7109" y1="1052.1875" y2="1052.1875"/><text fill="#000000" font-family="sans-serif" font-size="14" lengthAdjust="spacing" textLength="28.2393" x="801.0381" y="49.9951">CAS</text><text fill="#000000" font-family="sans-serif" font-size="14" lengthAdjust="spacing" textLength="55.0498" x="787.6328" y="66.292">Maxima</text><ellipse cx="818.1577" cy="21" fill="#E2E2F0" rx="12" ry="12" style="stroke:#181818;stroke-width:0.5;"/><polygon fill="#181818" points="814.1577,9,820.1577,4,818.1577,9,820.1577,14,814.1577,9" style="stroke:#181818;stroke-width:1.0;"/><text fill="#000000" font-family="sans-serif" font-size="14" lengthAdjust="spacing" textLength="28.2393" x="801.0381" y="1002.5889">CAS</text><text fill="#000000" font-family="sans-serif" font-size="14" lengthAdjust="spacing" textLength="55.0498" x="787.6328" y="1018.8857">Maxima</text><ellipse cx="818.1577" cy="1038.1875" fill="#E2E2F0" rx="12" ry="12" style="stroke:#181818;stroke-width:0.5;"/><polygon fill="#181818" points="814.1577,1026.1875,820.1577,1021.1875,818.1577,1026.1875,820.1577,1031.1875,814.1577,1026.1875" style="stroke:#181818;stroke-width:1.0;"/><rect fill="#FFFFFF" height="893" style="stroke:#181818;stroke-width:1.0;" width="10" x="34.5547" y="79.5938"/><rect fill="#FFFFFF" height="841.6016" style="stroke:#181818;stroke-width:1.0;" width="10" x="411.7109" y="130.9922"/><rect fill="#FFFFFF" height="71.2656" style="stroke:#181818;stroke-width:1.0;" width="10" x="813.1577" y="250.5234"/><rect fill="#FFFFFF" height="71.2656" style="stroke:#181818;stroke-width:1.0;" width="10" x="813.1577" y="389.8594"/><rect fill="#FFFFFF" height="71.2656" style="stroke:#181818;stroke-width:1.0;" width="10" x="813.1577" y="505.0625"/><rect fill="#FFFFFF" height="71.2656" style="stroke:#181818;stroke-width:1.0;" width="10" x="813.1577" y="634.2656"/><rect fill="#FFFFFF" height="29.1328" style="stroke:#181818;stroke-width:1.0;" width="10" x="813.1577" y="857.0625"/><polygon fill="#181818" points="399.7109,126.9922,409.7109,130.9922,399.7109,134.9922,403.7109,130.9922" style="stroke:#181818;stroke-width:1.0;"/><line style="stroke:#181818;stroke-width:1.0;" x1="44.5547" x2="405.7109" y1="130.9922" y2="130.9922"/><text fill="#000000" font-family="sans-serif" font-size="13" lengthAdjust="spacing" textLength="169.6919" x="51.5547" y="95.6606">Enviar solicitud de c&#225;lculo</text><text fill="#000000" font-family="sans-serif" font-size="13" lengthAdjust="spacing" textLength="348.1563" x="51.5547" y="110.7935">(funci&#243;n o trozos, intervalos ,tipo de serie, extensi&#243;n)</text><text fill="#000000" font-family="sans-serif" font-size="13" lengthAdjust="spacing" textLength="108.1006" x="51.5547" y="125.9263">en formato JSON</text><line style="stroke:#181818;stroke-width:1.0;" x1="421.7109" x2="463.7109" y1="160.125" y2="160.125"/><line style="stroke:#181818;stroke-width:1.0;" x1="463.7109" x2="463.7109" y1="160.125" y2="173.125"/><line style="stroke:#181818;stroke-width:1.0;" x1="422.7109" x2="463.7109" y1="173.125" y2="173.125"/><polygon fill="#181818" points="432.7109,169.125,422.7109,173.125,432.7109,177.125,428.7109,173.125" style="stroke:#181818;stroke-width:1.0;"/><text fill="#000000" font-family="sans-serif" font-size="13" lengthAdjust="spacing" textLength="212.2974" x="428.7109" y="155.0591">Calcular frecuencia angular (w0)</text><path d="M353.5303,188.125 L417.9731,188.125 L417.9731,195.2578 L407.9731,205.2578 L353.5303,205.2578 L353.5303,188.125 " fill="#EEEEEE" style="stroke:#000000;stroke-width:1.5;"/><rect fill="none" height="525.4063" style="stroke:#000000;stroke-width:1.5;" width="845.6333" x="353.5303" y="188.125"/><text fill="#000000" font-family="sans-serif" font-size="13" font-weight="bold" lengthAdjust="spacing" textLength="19.4429" x="368.5303" y="201.1919">alt</text><text fill="#000000" font-family="sans-serif" font-size="11" font-weight="bold" lengthAdjust="spacing" textLength="138.5151" x="432.9731" y="200.3354">[Serie trigonom&#233;trica]</text><path d="M363.5303,212.2578 L427.9731,212.2578 L427.9731,219.3906 L417.9731,229.3906 L363.5303,229.3906 L363.5303,212.2578 " fill="#EEEEEE" style="stroke:#000000;stroke-width:1.5;"/><rect fill="none" height="379.0703" style="stroke:#000000;stroke-width:1.5;" width="825.6333" x="363.5303" y="212.2578"/><text fill="#000000" font-family="sans-serif" font-size="13" font-weight="bold" lengthAdjust="spacing" textLength="19.4429" x="378.5303" y="225.3247">alt</text><text fill="#000000" font-family="sans-serif" font-size="11" font-weight="bold" lengthAdjust="spacing" textLength="132.0752" x="442.9731" y="224.4683">[Extensi&#243;n completa]</text><polygon fill="#181818" points="801.1577,246.5234,811.1577,250.5234,801.1577,254.5234,805.1577,250.5234" style="stroke:#181818;stroke-width:1.0;"/><line style="stroke:#181818;stroke-width:1.0;" x1="421.7109" x2="807.1577" y1="250.5234" y2="250.5234"/><text fill="#000000" font-family="sans-serif" font-size="13" lengthAdjust="spacing" textLength="212.5386" x="428.7109" y="245.4575">Calcular coeficientes a0, an y bn</text><line style="stroke:#181818;stroke-width:1.0;" x1="823.1577" x2="865.1577" y1="279.6563" y2="279.6563"/><line style="stroke:#181818;stroke-width:1.0;" x1="865.1577" x2="865.1577" y1="279.6563" y2="292.6563"/><line style="stroke:#181818;stroke-width:1.0;" x1="824.1577" x2="865.1577" y1="292.6563" y2="292.6563"/><polygon fill="#181818" points="834.1577,288.6563,824.1577,292.6563,834.1577,296.6563,830.1577,292.6563" style="stroke:#181818;stroke-width:1.0;"/><text fill="#000000" font-family="sans-serif" font-size="13" lengthAdjust="spacing" textLength="327.0059" x="830.1577" y="274.5903">Integrar en cada intervalo si la funci&#243;n es a trozos</text><polygon fill="#181818" points="432.7109,317.7891,422.7109,321.7891,432.7109,325.7891,428.7109,321.7891" style="stroke:#181818;stroke-width:1.0;"/><line style="stroke:#181818;stroke-width:1.0;stroke-dasharray:2.0,2.0;" x1="426.7109" x2="817.1577" y1="321.7891" y2="321.7891"/><text fill="#000000" font-family="sans-serif" font-size="13" lengthAdjust="spacing" textLength="157.3711" x="438.7109" y="316.7231">Coeficientes a0, an y bn</text><line style="stroke:#000000;stroke-width:1.0;stroke-dasharray:2.0,2.0;" x1="363.5303" x2="1189.1636" y1="330.7891" y2="330.7891"/><text fill="#000000" font-family="sans-serif" font-size="11" font-weight="bold" lengthAdjust="spacing" textLength="171.9771" x="368.5303" y="340.9995">[Extensi&#243;n de medio rango]</text><path d="M373.5303,351.5938 L437.9731,351.5938 L437.9731,358.7266 L427.9731,368.7266 L373.5303,368.7266 L373.5303,351.5938 " fill="#EEEEEE" style="stroke:#000000;stroke-width:1.5;"/><rect fill="none" height="232.7344" style="stroke:#000000;stroke-width:1.5;" width="805.6333" x="373.5303" y="351.5938"/><text fill="#000000" font-family="sans-serif" font-size="13" font-weight="bold" lengthAdjust="spacing" textLength="19.4429" x="388.5303" y="364.6606">alt</text><text fill="#000000" font-family="sans-serif" font-size="11" font-weight="bold" lengthAdjust="spacing" textLength="115.1079" x="452.9731" y="363.8042">[Serie de cosenos]</text><polygon fill="#181818" points="801.1577,385.8594,811.1577,389.8594,801.1577,393.8594,805.1577,389.8594" style="stroke:#181818;stroke-width:1.0;"/><line style="stroke:#181818;stroke-width:1.0;" x1="421.7109" x2="807.1577" y1="389.8594" y2="389.8594"/><text fill="#000000" font-family="sans-serif" font-size="13" lengthAdjust="spacing" textLength="187.7827" x="428.7109" y="384.7935">Calcular coeficientes a0 y an</text><line style="stroke:#181818;stroke-width:1.0;" x1="823.1577" x2="865.1577" y1="418.9922" y2="418.9922"/><line style="stroke:#181818;stroke-width:1.0;" x1="865.1577" x2="865.1577" y1="418.9922" y2="431.9922"/><line style="stroke:#181818;stroke-width:1.0;" x1="824.1577" x2="865.1577" y1="431.9922" y2="431.9922"/><polygon fill="#181818" points="834.1577,427.9922,824.1577,431.9922,834.1577,435.9922,830.1577,431.9922" style="stroke:#181818;stroke-width:1.0;"/><text fill="#000000" font-family="sans-serif" font-size="13" lengthAdjust="spacing" textLength="327.0059" x="830.1577" y="413.9263">Integrar en cada intervalo si la funci&#243;n es a trozos</text><polygon fill="#181818" points="432.7109,457.125,422.7109,461.125,432.7109,465.125,428.7109,461.125" style="stroke:#181818;stroke-width:1.0;"/><line style="stroke:#181818;stroke-width:1.0;stroke-dasharray:2.0,2.0;" x1="426.7109" x2="817.1577" y1="461.125" y2="461.125"/><text fill="#000000" font-family="sans-serif" font-size="13" lengthAdjust="spacing" textLength="132.6152" x="438.7109" y="456.0591">Coeficientes a0 y an</text><line style="stroke:#000000;stroke-width:1.0;stroke-dasharray:2.0,2.0;" x1="373.5303" x2="1179.1636" y1="470.125" y2="470.125"/><text fill="#000000" font-family="sans-serif" font-size="11" font-weight="bold" lengthAdjust="spacing" textLength="101.0303" x="378.5303" y="480.3354">[Serie de senos]</text><polygon fill="#181818" points="801.1577,501.0625,811.1577,505.0625,801.1577,509.0625,805.1577,505.0625" style="stroke:#181818;stroke-width:1.0;"/><line style="stroke:#181818;stroke-width:1.0;" x1="421.7109" x2="807.1577" y1="505.0625" y2="505.0625"/><text fill="#000000" font-family="sans-serif" font-size="13" lengthAdjust="spacing" textLength="155.873" x="428.7109" y="499.9966">Calcular coeficientes bn</text><line style="stroke:#181818;stroke-width:1.0;" x1="823.1577" x2="865.1577" y1="534.1953" y2="534.1953"/><line style="stroke:#181818;stroke-width:1.0;" x1="865.1577" x2="865.1577" y1="534.1953" y2="547.1953"/><line style="stroke:#181818;stroke-width:1.0;" x1="824.1577" x2="865.1577" y1="547.1953" y2="547.1953"/><polygon fill="#181818" points="834.1577,543.1953,824.1577,547.1953,834.1577,551.1953,830.1577,547.1953" style="stroke:#181818;stroke-width:1.0;"/><text fill="#000000" font-family="sans-serif" font-size="13" lengthAdjust="spacing" textLength="327.0059" x="830.1577" y="529.1294">Integrar en cada intervalo si la funci&#243;n es a trozos</text><polygon fill="#181818" points="432.7109,572.3281,422.7109,576.3281,432.7109,580.3281,428.7109,576.3281" style="stroke:#181818;stroke-width:1.0;"/><line style="stroke:#181818;stroke-width:1.0;stroke-dasharray:2.0,2.0;" x1="426.7109" x2="817.1577" y1="576.3281" y2="576.3281"/><text fill="#000000" font-family="sans-serif" font-size="13" lengthAdjust="spacing" textLength="100.7056" x="438.7109" y="571.2622">Coeficientes bn</text><line style="stroke:#000000;stroke-width:1.0;stroke-dasharray:2.0,2.0;" x1="353.5303" x2="1199.1636" y1="599.3281" y2="599.3281"/><text fill="#000000" font-family="sans-serif" font-size="11" font-weight="bold" lengthAdjust="spacing" textLength="120.5166" x="358.5303" y="609.5386">[Serie exponencial]</text><polygon fill="#181818" points="801.1577,630.2656,811.1577,634.2656,801.1577,638.2656,805.1577,634.2656" style="stroke:#181818;stroke-width:1.0;"/><line style="stroke:#181818;stroke-width:1.0;" x1="421.7109" x2="807.1577" y1="634.2656" y2="634.2656"/><text fill="#000000" font-family="sans-serif" font-size="13" lengthAdjust="spacing" textLength="186.145" x="428.7109" y="629.1997">Calcular coeficientes c0 y cn</text><line style="stroke:#181818;stroke-width:1.0;" x1="823.1577" x2="865.1577" y1="663.3984" y2="663.3984"/><line style="stroke:#181818;stroke-width:1.0;" x1="865.1577" x2="865.1577" y1="663.3984" y2="676.3984"/><line style="stroke:#181818;stroke-width:1.0;" x1="824.1577" x2="865.1577" y1="676.3984" y2="676.3984"/><polygon fill="#181818" points="834.1577,672.3984,824.1577,676.3984,834.1577,680.3984,830.1577,676.3984" style="stroke:#181818;stroke-width:1.0;"/><text fill="#000000" font-family="sans-serif" font-size="13" lengthAdjust="spacing" textLength="327.0059" x="830.1577" y="658.3325">Integrar en cada intervalo si la funci&#243;n es a trozos</text><polygon fill="#181818" points="432.7109,701.5313,422.7109,705.5313,432.7109,709.5313,428.7109,705.5313" style="stroke:#181818;stroke-width:1.0;"/><line style="stroke:#181818;stroke-width:1.0;stroke-dasharray:2.0,2.0;" x1="426.7109" x2="817.1577" y1="705.5313" y2="705.5313"/><text fill="#000000" font-family="sans-serif" font-size="13" lengthAdjust="spacing" textLength="130.9775" x="438.7109" y="700.4653">Coeficientes c0 y cn</text><line style="stroke:#181818;stroke-width:1.0;" x1="421.7109" x2="463.7109" y1="741.6641" y2="741.6641"/><line style="stroke:#181818;stroke-width:1.0;" x1="463.7109" x2="463.7109" y1="741.6641" y2="754.6641"/><line style="stroke:#181818;stroke-width:1.0;" x1="422.7109" x2="463.7109" y1="754.6641" y2="754.6641"/><polygon fill="#181818" points="432.7109,750.6641,422.7109,754.6641,432.7109,758.6641,428.7109,754.6641" style="stroke:#181818;stroke-width:1.0;"/><text fill="#000000" font-family="sans-serif" font-size="13" lengthAdjust="spacing" textLength="179.4419" x="428.7109" y="736.5981">Realizar expansi&#243;n en serie</text><path d="M373.5303,769.6641 L437.9731,769.6641 L437.9731,776.7969 L427.9731,786.7969 L373.5303,786.7969 L373.5303,769.6641 " fill="#EEEEEE" style="stroke:#000000;stroke-width:1.5;"/><rect fill="none" height="59.2656" style="stroke:#000000;stroke-width:1.5;" width="374.6572" x="373.5303" y="769.6641"/><text fill="#000000" font-family="sans-serif" font-size="13" font-weight="bold" lengthAdjust="spacing" textLength="19.4429" x="388.5303" y="782.731">alt</text><text fill="#000000" font-family="sans-serif" font-size="11" font-weight="bold" lengthAdjust="spacing" textLength="120.5166" x="452.9731" y="781.8745">[Serie exponencial]</text><line style="stroke:#181818;stroke-width:1.0;" x1="421.7109" x2="463.7109" y1="807.9297" y2="807.9297"/><line style="stroke:#181818;stroke-width:1.0;" x1="463.7109" x2="463.7109" y1="807.9297" y2="820.9297"/><line style="stroke:#181818;stroke-width:1.0;" x1="422.7109" x2="463.7109" y1="820.9297" y2="820.9297"/><polygon fill="#181818" points="432.7109,816.9297,422.7109,820.9297,432.7109,824.9297,428.7109,820.9297" style="stroke:#181818;stroke-width:1.0;"/><text fill="#000000" font-family="sans-serif" font-size="13" lengthAdjust="spacing" textLength="297.4766" x="428.7109" y="802.8638">Simplificar serie para eliminar parte compleja</text><polygon fill="#181818" points="801.1577,853.0625,811.1577,857.0625,801.1577,861.0625,805.1577,857.0625" style="stroke:#181818;stroke-width:1.0;"/><line style="stroke:#181818;stroke-width:1.0;" x1="421.7109" x2="807.1577" y1="857.0625" y2="857.0625"/><text fill="#000000" font-family="sans-serif" font-size="13" lengthAdjust="spacing" textLength="294.6455" x="428.7109" y="851.9966">Convertir resultados a formato TeX con Tex()</text><polygon fill="#181818" points="432.7109,882.1953,422.7109,886.1953,432.7109,890.1953,428.7109,886.1953" style="stroke:#181818;stroke-width:1.0;"/><line style="stroke:#181818;stroke-width:1.0;stroke-dasharray:2.0,2.0;" x1="426.7109" x2="817.1577" y1="886.1953" y2="886.1953"/><text fill="#000000" font-family="sans-serif" font-size="13" lengthAdjust="spacing" textLength="176.7314" x="438.7109" y="881.1294">Resultados en formato TeX</text><line style="stroke:#181818;stroke-width:1.0;" x1="421.7109" x2="463.7109" y1="930.4609" y2="930.4609"/><line style="stroke:#181818;stroke-width:1.0;" x1="463.7109" x2="463.7109" y1="930.4609" y2="943.4609"/><line style="stroke:#181818;stroke-width:1.0;" x1="422.7109" x2="463.7109" y1="943.4609" y2="943.4609"/><polygon fill="#181818" points="432.7109,939.4609,422.7109,943.4609,432.7109,947.4609,428.7109,943.4609" style="stroke:#181818;stroke-width:1.0;"/><text fill="#000000" font-family="sans-serif" font-size="13" lengthAdjust="spacing" textLength="351.6729" x="428.7109" y="910.2622">Convertir resultados en Maxima y Tex a formato JSON</text><text fill="#000000" font-family="sans-serif" font-size="13" lengthAdjust="spacing" textLength="367.4468" x="428.7109" y="925.395">(Frecuencia angular, Coeficientes, Extensi&#243;n de la serie)</text><polygon fill="#181818" points="50.5547,968.5938,40.5547,972.5938,50.5547,976.5938,46.5547,972.5938" style="stroke:#181818;stroke-width:1.0;"/><line style="stroke:#181818;stroke-width:1.0;stroke-dasharray:2.0,2.0;" x1="44.5547" x2="415.7109" y1="972.5938" y2="972.5938"/><text fill="#000000" font-family="sans-serif" font-size="13" lengthAdjust="spacing" textLength="297.394" x="56.5547" y="967.5278">Enviar resultados de la serie en formato JSON</text><!--SRC=[pPN1Zjem48RlUOeH9v1IQSyzL89L8krARAMbXprm6Pm1kNKyo7Oeks_JOyzz15wiumI25sWNLQtKN49YU_v_FfFV2sviXUuP1gLZ6yXMSpksgyQW6m1wA8kCRD119anGVMd77xYY-raxF2ao9SiS6nZSZcTpEyMjhh4TcuwVxgRZB4CLz0O3nLfb0Uy-oAhtKDYDHWUUZLOwD1LK16htpQZ6yDmEburLUlV30eDKVs6VWnPxReE6FUH1hpckyEGqvK1RSUxZ_D7SaeKbkne3m_tiuyDHNyncazx0BKOjiR1qf1eIEGJiEeVXrvkH63S1Pb50BEWLMwvtt-MNmWpaYgD5hmkAwxMXq8t5grFg82HgYcaf7GjKye0tkMZ2Conilwwtk-TtUDyzfZNlfCRAIKtfM665HqBWDHY47cAKsdCygtV0yPQlYYuv8-CfnI1xKbEb6Pomv6DJFSgupUp99awkfoMEqBvQzojQ_uBOszJE_LscrfFhcVmPaSN_2sDnDGTRPOTxmeIsQxRjLscoQt6ek06g4xuazpSP_AxtrCTvux7H98SU2Or-YHQsQzn_HUAcJROaWYxpY0LcMf97YtgCqtRk6XtA_qlNsiexUGgqpwVFcChtDDbko0Njm95lJC2AOxU75Fr4JxBSodqx76MdxPo0U3nMI89OIcJd9D8qlcH12dJdYU0KySHI37Ov9SgpwCvVxKH-4asoeIsXKQiiqkNn94fqavbmUfeaNSJp97aiYvy0]--></g></svg>