<svg xmlns="http://www.w3.org/2000/svg" xmlns:xlink="http://www.w3.org/1999/xlink" contentStyleType="text/css" data-diagram-type="DESCRIPTION" height="496px" preserveAspectRatio="none" style="width:1443px;height:496px;background:#FFFFFF;" version="1.1" viewBox="0 0 1443 496" width="1443px" zoomAndPan="magnify"><title>L&#243;gica de Despacho de API - Fourier y DFT</title><defs/><g><g class="title" data-source-line="1"><text fill="#000000" font-family="sans-serif" font-size="14" font-weight="bold" lengthAdjust="spacing" textLength="335.1592" x="546.9204" y="22.9951">L&#243;gica de Despacho de API - Fourier y DFT</text></g><!--cluster API Dispatch Logic--><g class="cluster" data-entity="API Dispatch Logic" data-source-line="3" data-uid="ent0002" id="cluster_API Dispatch Logic"><path d="M8.5,43.2969 L156.3906,43.2969 A3.75,3.75 0 0 1 158.8906,45.7969 L165.8906,65.5938 L1433.5,65.5938 A2.5,2.5 0 0 1 1436,68.0938 L1436,138.0969 A2.5,2.5 0 0 1 1433.5,140.5969 L8.5,140.5969 A2.5,2.5 0 0 1 6,138.0969 L6,45.7969 A2.5,2.5 0 0 1 8.5,43.2969" fill="none" style="stroke:#000000;stroke-width:1.5;"/><line style="stroke:#000000;stroke-width:1.5;" x1="6" x2="165.8906" y1="65.5938" y2="65.5938"/><text fill="#000000" font-family="sans-serif" font-size="14" font-weight="bold" lengthAdjust="spacing" textLength="146.8906" x="10" y="58.292">API Dispatch Logic</text></g><!--cluster Navigation Targets--><g class="cluster" data-entity="Navigation Targets" data-source-line="10" data-uid="ent0007" id="cluster_Navigation Targets"><path d="M325.5,164.5969 L477.4512,164.5969 A3.75,3.75 0 0 1 479.9512,167.0969 L486.9512,186.8938 L1356.5,186.8938 A2.5,2.5 0 0 1 1359,189.3938 L1359,259.3969 A2.5,2.5 0 0 1 1356.5,261.8969 L325.5,261.8969 A2.5,2.5 0 0 1 323,259.3969 L323,167.0969 A2.5,2.5 0 0 1 325.5,164.5969" fill="none" style="stroke:#000000;stroke-width:1.5;"/><line style="stroke:#000000;stroke-width:1.5;" x1="323" x2="486.9512" y1="186.8938" y2="186.8938"/><text fill="#000000" font-family="sans-serif" font-size="14" font-weight="bold" lengthAdjust="spacing" textLength="150.9512" x="327" y="179.592">Navigation Targets</text></g><!--cluster State Transfer--><g class="cluster" data-entity="State Transfer" data-source-line="17" data-uid="ent0012" id="cluster_State Transfer"><path d="M417.5,285.8969 L532.4756,285.8969 A3.75,3.75 0 0 1 534.9756,288.3969 L541.9756,308.1937 L1208.5,308.1937 A2.5,2.5 0 0 1 1211,310.6937 L1211,486.9869 A2.5,2.5 0 0 1 1208.5,489.4869 L417.5,489.4869 A2.5,2.5 0 0 1 415,486.9869 L415,288.3969 A2.5,2.5 0 0 1 417.5,285.8969" fill="none" style="stroke:#000000;stroke-width:1.5;"/><line style="stroke:#000000;stroke-width:1.5;" x1="415" x2="541.9756" y1="308.1937" y2="308.1937"/><text fill="#000000" font-family="sans-serif" font-size="14" font-weight="bold" lengthAdjust="spacing" textLength="113.9756" x="419" y="300.892">State Transfer</text></g><!--entity apiService.calculateTrigonometricSeriesPiecewise()--><g class="entity" data-entity="apiService.calculateTrigonometricSeriesPiecewise()" data-source-line="4" data-uid="ent0003" id="entity_apiService.calculateTrigonometricSeriesPiecewise()"><rect fill="#F1F1F1" height="46.2969" rx="2.5" ry="2.5" style="stroke:#181818;stroke-width:0.5;" width="401.5049" x="22.25" y="78.2969"/><rect fill="#F1F1F1" height="10" style="stroke:#181818;stroke-width:0.5;" width="15" x="403.7549" y="83.2969"/><rect fill="#F1F1F1" height="2" style="stroke:#181818;stroke-width:0.5;" width="4" x="401.7549" y="85.2969"/><rect fill="#F1F1F1" height="2" style="stroke:#181818;stroke-width:0.5;" width="4" x="401.7549" y="89.2969"/><text fill="#000000" font-family="sans-serif" font-size="14" lengthAdjust="spacing" textLength="361.5049" x="37.25" y="111.292">apiService.calculateTrigonometricSeriesPiecewise()</text></g><!--entity apiService.calculateComplexSeriesPiecewise()--><g class="entity" data-entity="apiService.calculateComplexSeriesPiecewise()" data-source-line="5" data-uid="ent0004" id="entity_apiService.calculateComplexSeriesPiecewise()"><rect fill="#F1F1F1" height="46.2969" rx="2.5" ry="2.5" style="stroke:#181818;stroke-width:0.5;" width="364.9873" x="458.51" y="78.2969"/><rect fill="#F1F1F1" height="10" style="stroke:#181818;stroke-width:0.5;" width="15" x="803.4973" y="83.2969"/><rect fill="#F1F1F1" height="2" style="stroke:#181818;stroke-width:0.5;" width="4" x="801.4973" y="85.2969"/><rect fill="#F1F1F1" height="2" style="stroke:#181818;stroke-width:0.5;" width="4" x="801.4973" y="89.2969"/><text fill="#000000" font-family="sans-serif" font-size="14" lengthAdjust="spacing" textLength="324.9873" x="473.51" y="111.292">apiService.calculateComplexSeriesPiecewise()</text></g><!--entity apiService.calculateHalfRangeSeries()--><g class="entity" data-entity="apiService.calculateHalfRangeSeries()" data-source-line="6" data-uid="ent0005" id="entity_apiService.calculateHalfRangeSeries()"><rect fill="#F1F1F1" height="46.2969" rx="2.5" ry="2.5" style="stroke:#181818;stroke-width:0.5;" width="307.4355" x="858.28" y="78.2969"/><rect fill="#F1F1F1" height="10" style="stroke:#181818;stroke-width:0.5;" width="15" x="1145.7155" y="83.2969"/><rect fill="#F1F1F1" height="2" style="stroke:#181818;stroke-width:0.5;" width="4" x="1143.7155" y="85.2969"/><rect fill="#F1F1F1" height="2" style="stroke:#181818;stroke-width:0.5;" width="4" x="1143.7155" y="89.2969"/><text fill="#000000" font-family="sans-serif" font-size="14" lengthAdjust="spacing" textLength="267.4355" x="873.28" y="111.292">apiService.calculateHalfRangeSeries()</text></g><!--entity apiService.calculateDFT()--><g class="entity" data-entity="apiService.calculateDFT()" data-source-line="7" data-uid="ent0006" id="entity_apiService.calculateDFT()"><rect fill="#F1F1F1" height="46.2969" rx="2.5" ry="2.5" style="stroke:#181818;stroke-width:0.5;" width="219.1631" x="1200.42" y="78.2969"/><rect fill="#F1F1F1" height="10" style="stroke:#181818;stroke-width:0.5;" width="15" x="1399.5831" y="83.2969"/><rect fill="#F1F1F1" height="2" style="stroke:#181818;stroke-width:0.5;" width="4" x="1397.5831" y="85.2969"/><rect fill="#F1F1F1" height="2" style="stroke:#181818;stroke-width:0.5;" width="4" x="1397.5831" y="89.2969"/><text fill="#000000" font-family="sans-serif" font-size="14" lengthAdjust="spacing" textLength="179.1631" x="1215.42" y="111.292">apiService.calculateDFT()</text></g><!--entity /fourier-series-plot/trig--><g class="entity" data-entity="/fourier-series-plot/trig" data-source-line="11" data-uid="ent0008" id="entity_/fourier-series-plot/trig"><rect fill="#F1F1F1" height="46.2969" rx="2.5" ry="2.5" style="stroke:#181818;stroke-width:0.5;" width="198.2314" x="338.88" y="199.5969"/><rect fill="#F1F1F1" height="10" style="stroke:#181818;stroke-width:0.5;" width="15" x="517.1114" y="204.5969"/><rect fill="#F1F1F1" height="2" style="stroke:#181818;stroke-width:0.5;" width="4" x="515.1114" y="206.5969"/><rect fill="#F1F1F1" height="2" style="stroke:#181818;stroke-width:0.5;" width="4" x="515.1114" y="210.5969"/><text fill="#000000" font-family="sans-serif" font-size="14" lengthAdjust="spacing" textLength="158.2314" x="353.88" y="232.592">/fourier-series-plot/trig</text></g><!--entity /fourier-series-plot/complex--><g class="entity" data-entity="/fourier-series-plot/complex" data-source-line="12" data-uid="ent0009" id="entity_/fourier-series-plot/complex"><rect fill="#F1F1F1" height="46.2969" rx="2.5" ry="2.5" style="stroke:#181818;stroke-width:0.5;" width="233.7852" x="572.11" y="199.5969"/><rect fill="#F1F1F1" height="10" style="stroke:#181818;stroke-width:0.5;" width="15" x="785.8952" y="204.5969"/><rect fill="#F1F1F1" height="2" style="stroke:#181818;stroke-width:0.5;" width="4" x="783.8952" y="206.5969"/><rect fill="#F1F1F1" height="2" style="stroke:#181818;stroke-width:0.5;" width="4" x="783.8952" y="210.5969"/><text fill="#000000" font-family="sans-serif" font-size="14" lengthAdjust="spacing" textLength="193.7852" x="587.11" y="232.592">/fourier-series-plot/complex</text></g><!--entity /fourier-series-plot/half-range--><g class="entity" data-entity="/fourier-series-plot/half-range" data-source-line="13" data-uid="ent0010" id="entity_/fourier-series-plot/half-range"><rect fill="#F1F1F1" height="46.2969" rx="2.5" ry="2.5" style="stroke:#181818;stroke-width:0.5;" width="246.2402" x="840.88" y="199.5969"/><rect fill="#F1F1F1" height="10" style="stroke:#181818;stroke-width:0.5;" width="15" x="1067.1202" y="204.5969"/><rect fill="#F1F1F1" height="2" style="stroke:#181818;stroke-width:0.5;" width="4" x="1065.1202" y="206.5969"/><rect fill="#F1F1F1" height="2" style="stroke:#181818;stroke-width:0.5;" width="4" x="1065.1202" y="210.5969"/><text fill="#000000" font-family="sans-serif" font-size="14" lengthAdjust="spacing" textLength="206.2402" x="855.88" y="232.592">/fourier-series-plot/half-range</text></g><!--entity /fourier-transform-plot/dft--><g class="entity" data-entity="/fourier-transform-plot/dft" data-source-line="14" data-uid="ent0011" id="entity_/fourier-transform-plot/dft"><rect fill="#F1F1F1" height="46.2969" rx="2.5" ry="2.5" style="stroke:#181818;stroke-width:0.5;" width="220.9336" x="1122.53" y="199.5969"/><rect fill="#F1F1F1" height="10" style="stroke:#181818;stroke-width:0.5;" width="15" x="1323.4636" y="204.5969"/><rect fill="#F1F1F1" height="2" style="stroke:#181818;stroke-width:0.5;" width="4" x="1321.4636" y="206.5969"/><rect fill="#F1F1F1" height="2" style="stroke:#181818;stroke-width:0.5;" width="4" x="1321.4636" y="210.5969"/><text fill="#000000" font-family="sans-serif" font-size="14" lengthAdjust="spacing" textLength="180.9336" x="1137.53" y="232.592">/fourier-transform-plot/dft</text></g><!--entity API Response--><g class="entity" data-entity="API Response" data-source-line="18" data-uid="ent0013" id="entity_API Response"><rect fill="#F1F1F1" height="46.2969" rx="2.5" ry="2.5" style="stroke:#181818;stroke-width:0.5;" width="134.4658" x="758.77" y="320.8969"/><rect fill="#F1F1F1" height="10" style="stroke:#181818;stroke-width:0.5;" width="15" x="873.2358" y="325.8969"/><rect fill="#F1F1F1" height="2" style="stroke:#181818;stroke-width:0.5;" width="4" x="871.2358" y="327.8969"/><rect fill="#F1F1F1" height="2" style="stroke:#181818;stroke-width:0.5;" width="4" x="871.2358" y="331.8969"/><text fill="#000000" font-family="sans-serif" font-size="14" lengthAdjust="spacing" textLength="94.4658" x="773.77" y="353.892">API Response</text></g><!--entity Original LaTeX Expressions--><g class="entity" data-entity="Original LaTeX Expressions" data-source-line="19" data-uid="ent0014" id="entity_Original LaTeX Expressions"><rect fill="#F1F1F1" height="46.2969" rx="2.5" ry="2.5" style="stroke:#181818;stroke-width:0.5;" width="230.415" x="430.79" y="427.1869"/><rect fill="#F1F1F1" height="10" style="stroke:#181818;stroke-width:0.5;" width="15" x="641.205" y="432.1869"/><rect fill="#F1F1F1" height="2" style="stroke:#181818;stroke-width:0.5;" width="4" x="639.205" y="434.1869"/><rect fill="#F1F1F1" height="2" style="stroke:#181818;stroke-width:0.5;" width="4" x="639.205" y="438.1869"/><text fill="#000000" font-family="sans-serif" font-size="14" lengthAdjust="spacing" textLength="190.415" x="445.79" y="460.182">Original LaTeX Expressions</text></g><!--entity Converted Maxima Expressions--><g class="entity" data-entity="Converted Maxima Expressions" data-source-line="20" data-uid="ent0015" id="entity_Converted Maxima Expressions"><rect fill="#F1F1F1" height="46.2969" rx="2.5" ry="2.5" style="stroke:#181818;stroke-width:0.5;" width="260.4043" x="695.8" y="427.1869"/><rect fill="#F1F1F1" height="10" style="stroke:#181818;stroke-width:0.5;" width="15" x="936.2043" y="432.1869"/><rect fill="#F1F1F1" height="2" style="stroke:#181818;stroke-width:0.5;" width="4" x="934.2043" y="434.1869"/><rect fill="#F1F1F1" height="2" style="stroke:#181818;stroke-width:0.5;" width="4" x="934.2043" y="438.1869"/><text fill="#000000" font-family="sans-serif" font-size="14" lengthAdjust="spacing" textLength="220.4043" x="710.8" y="460.182">Converted Maxima Expressions</text></g><!--entity Calculation Parameters--><g class="entity" data-entity="Calculation Parameters" data-source-line="21" data-uid="ent0016" id="entity_Calculation Parameters"><rect fill="#F1F1F1" height="46.2969" rx="2.5" ry="2.5" style="stroke:#181818;stroke-width:0.5;" width="203.3105" x="991.34" y="427.1869"/><rect fill="#F1F1F1" height="10" style="stroke:#181818;stroke-width:0.5;" width="15" x="1174.6505" y="432.1869"/><rect fill="#F1F1F1" height="2" style="stroke:#181818;stroke-width:0.5;" width="4" x="1172.6505" y="434.1869"/><rect fill="#F1F1F1" height="2" style="stroke:#181818;stroke-width:0.5;" width="4" x="1172.6505" y="438.1869"/><text fill="#000000" font-family="sans-serif" font-size="14" lengthAdjust="spacing" textLength="163.3105" x="1006.34" y="460.182">Calculation Parameters</text></g><!--link apiService.calculateTrigonometricSeriesPiecewise() to /fourier-series-plot/trig--><g class="link" data-entity-1="apiService.calculateTrigonometricSeriesPiecewise()" data-entity-2="/fourier-series-plot/trig" data-source-line="25" data-uid="lnk17" id="link_apiService.calculateTrigonometricSeriesPiecewise()_/fourier-series-plot/trig"><path d="M263.69,125.0269 C302.04,146.3069 353.9338,175.0953 392.2238,196.3453" fill="none" id="apiService.calculateTrigonometricSeriesPiecewise()-to-/fourier-series-plot/trig" style="stroke:#181818;stroke-width:1;"/><polygon fill="#181818" points="397.47,199.2569,391.5417,191.3921,393.0981,196.8306,387.6596,198.3871,397.47,199.2569" style="stroke:#181818;stroke-width:1;"/></g><!--link apiService.calculateComplexSeriesPiecewise() to /fourier-series-plot/complex--><g class="link" data-entity-1="apiService.calculateComplexSeriesPiecewise()" data-entity-2="/fourier-series-plot/complex" data-source-line="26" data-uid="lnk18" id="link_apiService.calculateComplexSeriesPiecewise()_/fourier-series-plot/complex"><path d="M650.03,124.8869 C658.61,146.2169 669.2004,172.5405 677.7704,193.8405" fill="none" id="apiService.calculateComplexSeriesPiecewise()-to-/fourier-series-plot/complex" style="stroke:#181818;stroke-width:1;"/><polygon fill="#181818" points="680.01,199.4069,680.3615,189.5643,678.1437,194.7683,672.9397,192.5504,680.01,199.4069" style="stroke:#181818;stroke-width:1;"/></g><!--link apiService.calculateHalfRangeSeries() to /fourier-series-plot/half-range--><g class="link" data-entity-1="apiService.calculateHalfRangeSeries()" data-entity-2="/fourier-series-plot/half-range" data-source-line="27" data-uid="lnk19" id="link_apiService.calculateHalfRangeSeries()_/fourier-series-plot/half-range"><path d="M1002.97,124.8869 C994.39,146.2169 983.7996,172.5405 975.2296,193.8405" fill="none" id="apiService.calculateHalfRangeSeries()-to-/fourier-series-plot/half-range" style="stroke:#181818;stroke-width:1;"/><polygon fill="#181818" points="972.99,199.4069,980.0603,192.5504,974.8563,194.7683,972.6385,189.5643,972.99,199.4069" style="stroke:#181818;stroke-width:1;"/></g><!--link apiService.calculateDFT() to /fourier-transform-plot/dft--><g class="link" data-entity-1="apiService.calculateDFT()" data-entity-2="/fourier-transform-plot/dft" data-source-line="28" data-uid="lnk20" id="link_apiService.calculateDFT()_/fourier-transform-plot/dft"><path d="M1295.52,124.8869 C1281.75,146.2169 1264.4124,173.0649 1250.6724,194.3649" fill="none" id="apiService.calculateDFT()-to-/fourier-transform-plot/dft" style="stroke:#181818;stroke-width:1;"/><polygon fill="#181818" points="1247.42,199.4069,1255.66,194.0122,1250.1304,195.2052,1248.9373,189.6756,1247.42,199.4069" style="stroke:#181818;stroke-width:1;"/></g><!--link /fourier-series-plot/trig to API Response--><g class="link" data-entity-1="/fourier-series-plot/trig" data-entity-2="API Response" data-source-line="31" data-uid="lnk21" id="link_/fourier-series-plot/trig_API Response"><path d="M491.71,246.3869 C511.44,254.3169 534.06,262.9669 555,269.8969 C623.35,292.5169 697.2545,311.9605 752.4545,325.5705" fill="none" id="/fourier-series-plot/trig-to-API Response" style="stroke:#181818;stroke-width:1;"/><polygon fill="#181818" points="758.28,327.0069,750.4992,320.9687,753.4254,325.8099,748.5841,328.7361,758.28,327.0069" style="stroke:#181818;stroke-width:1;"/></g><!--link /fourier-series-plot/complex to API Response--><g class="link" data-entity-1="/fourier-series-plot/complex" data-entity-2="API Response" data-source-line="32" data-uid="lnk22" id="link_/fourier-series-plot/complex_API Response"><path d="M714.77,246.1869 C739.26,267.5169 771.3652,295.4666 795.8252,316.7666" fill="none" id="/fourier-series-plot/complex-to-API Response" style="stroke:#181818;stroke-width:1;"/><polygon fill="#181818" points="800.35,320.7069,796.1896,311.7799,796.5793,317.4233,790.9359,317.813,800.35,320.7069" style="stroke:#181818;stroke-width:1;"/></g><!--link /fourier-series-plot/half-range to API Response--><g class="link" data-entity-1="/fourier-series-plot/half-range" data-entity-2="API Response" data-source-line="33" data-uid="lnk23" id="link_/fourier-series-plot/half-range_API Response"><path d="M938.04,246.1869 C913.37,267.5169 881.0083,295.4821 856.3783,316.7821" fill="none" id="/fourier-series-plot/half-range-to-API Response" style="stroke:#181818;stroke-width:1;"/><polygon fill="#181818" points="851.84,320.7069,861.264,317.8453,855.6219,317.4363,856.031,311.7942,851.84,320.7069" style="stroke:#181818;stroke-width:1;"/></g><!--link /fourier-transform-plot/dft to API Response--><g class="link" data-entity-1="/fourier-transform-plot/dft" data-entity-2="API Response" data-source-line="34" data-uid="lnk24" id="link_/fourier-transform-plot/dft_API Response"><path d="M1173.79,246.3469 C1152.27,254.2269 1127.67,262.8469 1105,269.8969 C1033.51,292.1069 956.2002,311.8996 899.3902,325.7096" fill="none" id="/fourier-transform-plot/dft-to-API Response" style="stroke:#181818;stroke-width:1;"/><polygon fill="#181818" points="893.56,327.1269,903.2502,328.8878,898.4185,325.9458,901.3605,321.1142,893.56,327.1269" style="stroke:#181818;stroke-width:1;"/></g><!--link API Response to Original LaTeX Expressions--><g class="link" data-entity-1="API Response" data-entity-2="Original LaTeX Expressions" data-source-line="36" data-uid="lnk25" id="link_API Response_Original LaTeX Expressions"><path d="M765.24,367.6769 C718.28,385.1669 659.1926,407.1726 612.2626,424.6526" fill="none" id="API Response-to-Original LaTeX Expressions" style="stroke:#181818;stroke-width:1;"/><polygon fill="#181818" points="606.64,426.7469,616.4701,427.3539,611.3255,425.0017,613.6778,419.8571,606.64,426.7469" style="stroke:#181818;stroke-width:1;"/></g><!--link API Response to Converted Maxima Expressions--><g class="link" data-entity-1="API Response" data-entity-2="Converted Maxima Expressions" data-source-line="37" data-uid="lnk26" id="link_API Response_Converted Maxima Expressions"><path d="M826,367.6769 C826,385.1669 826,403.2669 826,420.7469" fill="none" id="API Response-to-Converted Maxima Expressions" style="stroke:#181818;stroke-width:1;"/><polygon fill="#181818" points="826,426.7469,830,417.7469,826,421.7469,822,417.7469,826,426.7469" style="stroke:#181818;stroke-width:1;"/></g><!--link API Response to Calculation Parameters--><g class="link" data-entity-1="API Response" data-entity-2="Calculation Parameters" data-source-line="38" data-uid="lnk27" id="link_API Response_Calculation Parameters"><path d="M883.94,367.6769 C928.72,385.1669 984.8311,407.0842 1029.5911,424.5642" fill="none" id="API Response-to-Calculation Parameters" style="stroke:#181818;stroke-width:1;"/><polygon fill="#181818" points="1035.18,426.7469,1028.2517,419.747,1030.5226,424.928,1025.3415,427.1989,1035.18,426.7469" style="stroke:#181818;stroke-width:1;"/></g><!--SRC=[dLFDJi904BxtAIPSr4Fb3KmCI3H19T23YU4msKxBQBlRx2u8CJuLDw-ycDiM3DLsWzxQpZUJxw-MRKOmtcrJ5WWnmP1CWMAXokVhoHs4C59BpQHX0yDH50Hk-eefGQ-S3jcXhLZ0MBa3FNWF09wnu1df5Gkw59Y9POQM8isfaYedgrcuAPEPC0bwOqFd5_EkjO7AYupMfo_SOfPCKQPKhtYGJamv_JXIz80hJj6oaX2XJicQlQ9-KdiGckfgM6JAzfsITDuv5JNpRi32CGrrIRM9iUwRIPJEQrYSs2R9cNNa8QfGfFS4ooocBZabJNtkqP5ZYHcCCQ8dk5aNcennoamr7YYv8cqfXdjSSuw_0NkRIYycgD45HzfKJCvWb2rVgeB4Xx9iGEAAKXIysyhWFms0CBpo6lstVdZEVITpOe4yfuupz9JinuMsX9shXqX92gv-HJ8MOmMEx-xJcThjJNs_sG6_zjCtZYJwbrfKjIq4pVSQucjh6zvVtzQDzZv_0G00]--></g></svg>