<svg xmlns="http://www.w3.org/2000/svg" xmlns:xlink="http://www.w3.org/1999/xlink" contentStyleType="text/css" data-diagram-type="DESCRIPTION" height="830px" preserveAspectRatio="none" style="width:971px;height:830px;background:#FFFFFF;" version="1.1" viewBox="0 0 971 830" width="971px" zoomAndPan="magnify"><title>Arquitectura de Aplicaci&#243;n - Fourier Series</title><defs/><g><g class="title" data-source-line="1"><text fill="#000000" font-family="sans-serif" font-size="14" font-weight="bold" lengthAdjust="spacing" textLength="336.9639" x="310.0181" y="22.9951">Arquitectura de Aplicaci&#243;n - Fourier Series</text></g><!--cluster HTTP Layer--><g class="cluster" data-entity="HTTP Layer" data-source-line="3" data-uid="ent0002" id="cluster_HTTP Layer"><path d="M358.5,43.2969 L449.3447,43.2969 A3.75,3.75 0 0 1 451.8447,45.7969 L458.8447,65.5938 L605.5,65.5938 A2.5,2.5 0 0 1 608,68.0938 L608,244.3969 A2.5,2.5 0 0 1 605.5,246.8969 L358.5,246.8969 A2.5,2.5 0 0 1 356,244.3969 L356,45.7969 A2.5,2.5 0 0 1 358.5,43.2969" fill="none" style="stroke:#000000;stroke-width:1.5;"/><line style="stroke:#000000;stroke-width:1.5;" x1="356" x2="458.8447" y1="65.5938" y2="65.5938"/><text fill="#000000" font-family="sans-serif" font-size="14" font-weight="bold" lengthAdjust="spacing" textLength="89.8447" x="360" y="58.292">HTTP Layer</text></g><!--cluster Service Layer--><g class="cluster" data-entity="Service Layer" data-source-line="8" data-uid="ent0005" id="cluster_Service Layer"><path d="M70.5,270.8969 L178.4688,270.8969 A3.75,3.75 0 0 1 180.9688,273.3969 L187.9688,293.1938 L961.5,293.1938 A2.5,2.5 0 0 1 964,295.6938 L964,471.9869 A2.5,2.5 0 0 1 961.5,474.4869 L70.5,474.4869 A2.5,2.5 0 0 1 68,471.9869 L68,273.3969 A2.5,2.5 0 0 1 70.5,270.8969" fill="none" style="stroke:#000000;stroke-width:1.5;"/><line style="stroke:#000000;stroke-width:1.5;" x1="68" x2="187.9688" y1="293.1938" y2="293.1938"/><text fill="#000000" font-family="sans-serif" font-size="14" font-weight="bold" lengthAdjust="spacing" textLength="106.9688" x="72" y="285.892">Service Layer</text></g><!--cluster Utility Layer--><g class="cluster" data-entity="Utility Layer" data-source-line="15" data-uid="ent0010" id="cluster_Utility Layer"><path d="M8.5,498.4869 L106.543,498.4869 A3.75,3.75 0 0 1 109.043,500.9869 L116.043,520.7838 L858.5,520.7838 A2.5,2.5 0 0 1 861,523.2838 L861,593.2869 A2.5,2.5 0 0 1 858.5,595.7869 L8.5,595.7869 A2.5,2.5 0 0 1 6,593.2869 L6,500.9869 A2.5,2.5 0 0 1 8.5,498.4869" fill="none" style="stroke:#000000;stroke-width:1.5;"/><line style="stroke:#000000;stroke-width:1.5;" x1="6" x2="116.043" y1="520.7838" y2="520.7838"/><text fill="#000000" font-family="sans-serif" font-size="14" font-weight="bold" lengthAdjust="spacing" textLength="97.043" x="10" y="513.482">Utility Layer</text></g><!--cluster External Systems--><g class="cluster" data-entity="External Systems" data-source-line="22" data-uid="ent0015" id="cluster_External Systems"><path d="M209.5,619.7869 L347.9229,619.7869 A3.75,3.75 0 0 1 350.4229,622.2869 L357.4229,642.0838 L448.5,642.0838 A2.5,2.5 0 0 1 451,644.5838 L451,820.8769 A2.5,2.5 0 0 1 448.5,823.3769 L209.5,823.3769 A2.5,2.5 0 0 1 207,820.8769 L207,622.2869 A2.5,2.5 0 0 1 209.5,619.7869" fill="none" style="stroke:#000000;stroke-width:1.5;"/><line style="stroke:#000000;stroke-width:1.5;" x1="207" x2="357.4229" y1="642.0838" y2="642.0838"/><text fill="#000000" font-family="sans-serif" font-size="14" font-weight="bold" lengthAdjust="spacing" textLength="137.4229" x="211" y="634.782">External Systems</text></g><!--entity Express Application--><g class="entity" data-entity="Express Application" data-source-line="4" data-uid="ent0003" id="entity_Express Application"><rect fill="#F1F1F1" height="46.2969" rx="2.5" ry="2.5" style="stroke:#181818;stroke-width:0.5;" width="177.6484" x="393.18" y="78.2969"/><rect fill="#F1F1F1" height="10" style="stroke:#181818;stroke-width:0.5;" width="15" x="550.8284" y="83.2969"/><rect fill="#F1F1F1" height="2" style="stroke:#181818;stroke-width:0.5;" width="4" x="548.8284" y="85.2969"/><rect fill="#F1F1F1" height="2" style="stroke:#181818;stroke-width:0.5;" width="4" x="548.8284" y="89.2969"/><text fill="#000000" font-family="sans-serif" font-size="14" lengthAdjust="spacing" textLength="137.6484" x="408.18" y="111.292">Express Application</text></g><!--entity fourier-series.controller.js--><g class="entity" data-entity="fourier-series.controller.js" data-source-line="5" data-uid="ent0004" id="entity_fourier-series.controller.js"><rect fill="#F1F1F1" height="46.2969" rx="2.5" ry="2.5" style="stroke:#181818;stroke-width:0.5;" width="220.0723" x="371.96" y="184.5969"/><rect fill="#F1F1F1" height="10" style="stroke:#181818;stroke-width:0.5;" width="15" x="572.0323" y="189.5969"/><rect fill="#F1F1F1" height="2" style="stroke:#181818;stroke-width:0.5;" width="4" x="570.0323" y="191.5969"/><rect fill="#F1F1F1" height="2" style="stroke:#181818;stroke-width:0.5;" width="4" x="570.0323" y="195.5969"/><text fill="#000000" font-family="sans-serif" font-size="14" lengthAdjust="spacing" textLength="180.0723" x="386.96" y="217.592">fourier-series.controller.js</text></g><!--entity /api/fourier-series/*--><g class="entity" data-entity="/api/fourier-series/*" data-source-line="9" data-uid="ent0006" id="entity_/api/fourier-series/*"><rect fill="#F1F1F1" height="46.2969" rx="2.5" ry="2.5" style="stroke:#181818;stroke-width:0.5;" width="175.3994" x="394.3" y="305.8969"/><rect fill="#F1F1F1" height="10" style="stroke:#181818;stroke-width:0.5;" width="15" x="549.6994" y="310.8969"/><rect fill="#F1F1F1" height="2" style="stroke:#181818;stroke-width:0.5;" width="4" x="547.6994" y="312.8969"/><rect fill="#F1F1F1" height="2" style="stroke:#181818;stroke-width:0.5;" width="4" x="547.6994" y="316.8969"/><text fill="#000000" font-family="sans-serif" font-size="14" lengthAdjust="spacing" textLength="135.3994" x="409.3" y="338.892">/api/fourier-series/*</text></g><!--entity computeTrigonometricSeries()--><g class="entity" data-entity="computeTrigonometricSeries()" data-source-line="10" data-uid="ent0007" id="entity_computeTrigonometricSeries()"><rect fill="#F1F1F1" height="46.2969" rx="2.5" ry="2.5" style="stroke:#181818;stroke-width:0.5;" width="253.9102" x="84.04" y="412.1869"/><rect fill="#F1F1F1" height="10" style="stroke:#181818;stroke-width:0.5;" width="15" x="317.9502" y="417.1869"/><rect fill="#F1F1F1" height="2" style="stroke:#181818;stroke-width:0.5;" width="4" x="315.9502" y="419.1869"/><rect fill="#F1F1F1" height="2" style="stroke:#181818;stroke-width:0.5;" width="4" x="315.9502" y="423.1869"/><text fill="#000000" font-family="sans-serif" font-size="14" lengthAdjust="spacing" textLength="213.9102" x="99.04" y="445.182">computeTrigonometricSeries()</text></g><!--entity computeComplexSeries()--><g class="entity" data-entity="computeComplexSeries()" data-source-line="11" data-uid="ent0008" id="entity_computeComplexSeries()"><rect fill="#F1F1F1" height="46.2969" rx="2.5" ry="2.5" style="stroke:#181818;stroke-width:0.5;" width="217.3926" x="373.3" y="412.1869"/><rect fill="#F1F1F1" height="10" style="stroke:#181818;stroke-width:0.5;" width="15" x="570.6926" y="417.1869"/><rect fill="#F1F1F1" height="2" style="stroke:#181818;stroke-width:0.5;" width="4" x="568.6926" y="419.1869"/><rect fill="#F1F1F1" height="2" style="stroke:#181818;stroke-width:0.5;" width="4" x="568.6926" y="423.1869"/><text fill="#000000" font-family="sans-serif" font-size="14" lengthAdjust="spacing" textLength="177.3926" x="388.3" y="445.182">computeComplexSeries()</text></g><!--entity computeTrigonometricSeriesPiecewise()--><g class="entity" data-entity="computeTrigonometricSeriesPiecewise()" data-source-line="12" data-uid="ent0009" id="entity_computeTrigonometricSeriesPiecewise()"><rect fill="#F1F1F1" height="46.2969" rx="2.5" ry="2.5" style="stroke:#181818;stroke-width:0.5;" width="322.4131" x="625.79" y="412.1869"/><rect fill="#F1F1F1" height="10" style="stroke:#181818;stroke-width:0.5;" width="15" x="928.2031" y="417.1869"/><rect fill="#F1F1F1" height="2" style="stroke:#181818;stroke-width:0.5;" width="4" x="926.2031" y="419.1869"/><rect fill="#F1F1F1" height="2" style="stroke:#181818;stroke-width:0.5;" width="4" x="926.2031" y="423.1869"/><text fill="#000000" font-family="sans-serif" font-size="14" lengthAdjust="spacing" textLength="282.4131" x="640.79" y="445.182">computeTrigonometricSeriesPiecewise()</text></g><!--entity piecewise-series.util.js--><g class="entity" data-entity="piecewise-series.util.js" data-source-line="16" data-uid="ent0011" id="entity_piecewise-series.util.js"><rect fill="#F1F1F1" height="46.2969" rx="2.5" ry="2.5" style="stroke:#181818;stroke-width:0.5;" width="197.6846" x="647.16" y="533.4869"/><rect fill="#F1F1F1" height="10" style="stroke:#181818;stroke-width:0.5;" width="15" x="824.8446" y="538.4869"/><rect fill="#F1F1F1" height="2" style="stroke:#181818;stroke-width:0.5;" width="4" x="822.8446" y="540.4869"/><rect fill="#F1F1F1" height="2" style="stroke:#181818;stroke-width:0.5;" width="4" x="822.8446" y="544.4869"/><text fill="#000000" font-family="sans-serif" font-size="14" lengthAdjust="spacing" textLength="157.6846" x="662.16" y="566.482">piecewise-series.util.js</text></g><!--entity maxima.util.js--><g class="entity" data-entity="maxima.util.js" data-source-line="17" data-uid="ent0012" id="entity_maxima.util.js"><rect fill="#F1F1F1" height="46.2969" rx="2.5" ry="2.5" style="stroke:#181818;stroke-width:0.5;" width="138.834" x="259.58" y="533.4869"/><rect fill="#F1F1F1" height="10" style="stroke:#181818;stroke-width:0.5;" width="15" x="378.414" y="538.4869"/><rect fill="#F1F1F1" height="2" style="stroke:#181818;stroke-width:0.5;" width="4" x="376.414" y="540.4869"/><rect fill="#F1F1F1" height="2" style="stroke:#181818;stroke-width:0.5;" width="4" x="376.414" y="544.4869"/><text fill="#000000" font-family="sans-serif" font-size="14" lengthAdjust="spacing" textLength="98.834" x="274.58" y="566.482">maxima.util.js</text></g><!--entity fourier-validation.util.js--><g class="entity" data-entity="fourier-validation.util.js" data-source-line="18" data-uid="ent0013" id="entity_fourier-validation.util.js"><rect fill="#F1F1F1" height="46.2969" rx="2.5" ry="2.5" style="stroke:#181818;stroke-width:0.5;" width="202.5859" x="21.71" y="533.4869"/><rect fill="#F1F1F1" height="10" style="stroke:#181818;stroke-width:0.5;" width="15" x="204.2959" y="538.4869"/><rect fill="#F1F1F1" height="2" style="stroke:#181818;stroke-width:0.5;" width="4" x="202.2959" y="540.4869"/><rect fill="#F1F1F1" height="2" style="stroke:#181818;stroke-width:0.5;" width="4" x="202.2959" y="544.4869"/><text fill="#000000" font-family="sans-serif" font-size="14" lengthAdjust="spacing" textLength="162.5859" x="36.71" y="566.482">fourier-validation.util.js</text></g><!--entity maxima-rules.util.js--><g class="entity" data-entity="maxima-rules.util.js" data-source-line="19" data-uid="ent0014" id="entity_maxima-rules.util.js"><rect fill="#F1F1F1" height="46.2969" rx="2.5" ry="2.5" style="stroke:#181818;stroke-width:0.5;" width="178.3115" x="433.84" y="533.4869"/><rect fill="#F1F1F1" height="10" style="stroke:#181818;stroke-width:0.5;" width="15" x="592.1515" y="538.4869"/><rect fill="#F1F1F1" height="2" style="stroke:#181818;stroke-width:0.5;" width="4" x="590.1515" y="540.4869"/><rect fill="#F1F1F1" height="2" style="stroke:#181818;stroke-width:0.5;" width="4" x="590.1515" y="544.4869"/><text fill="#000000" font-family="sans-serif" font-size="14" lengthAdjust="spacing" textLength="138.3115" x="448.84" y="566.482">maxima-rules.util.js</text></g><!--entity Command Line Interface--><g class="entity" data-entity="Command Line Interface" data-source-line="23" data-uid="ent0016" id="entity_Command Line Interface"><rect fill="#F1F1F1" height="46.2969" rx="2.5" ry="2.5" style="stroke:#181818;stroke-width:0.5;" width="212.71" x="222.65" y="654.7869"/><rect fill="#F1F1F1" height="10" style="stroke:#181818;stroke-width:0.5;" width="15" x="415.36" y="659.7869"/><rect fill="#F1F1F1" height="2" style="stroke:#181818;stroke-width:0.5;" width="4" x="413.36" y="661.7869"/><rect fill="#F1F1F1" height="2" style="stroke:#181818;stroke-width:0.5;" width="4" x="413.36" y="665.7869"/><text fill="#000000" font-family="sans-serif" font-size="14" lengthAdjust="spacing" textLength="172.71" x="237.65" y="687.782">Command Line Interface</text></g><!--entity Maxima CAS Engine--><g class="entity" data-entity="Maxima CAS Engine" data-source-line="24" data-uid="ent0017" id="entity_Maxima CAS Engine"><rect fill="#F1F1F1" height="46.2969" rx="2.5" ry="2.5" style="stroke:#181818;stroke-width:0.5;" width="180.1709" x="238.91" y="761.0769"/><rect fill="#F1F1F1" height="10" style="stroke:#181818;stroke-width:0.5;" width="15" x="399.0809" y="766.0769"/><rect fill="#F1F1F1" height="2" style="stroke:#181818;stroke-width:0.5;" width="4" x="397.0809" y="768.0769"/><rect fill="#F1F1F1" height="2" style="stroke:#181818;stroke-width:0.5;" width="4" x="397.0809" y="772.0769"/><text fill="#000000" font-family="sans-serif" font-size="14" lengthAdjust="spacing" textLength="140.1709" x="253.91" y="794.072">Maxima CAS Engine</text></g><!--link Express Application to fourier-series.controller.js--><g class="link" data-entity-1="Express Application" data-entity-2="fourier-series.controller.js" data-source-line="28" data-uid="lnk18" id="link_Express Application_fourier-series.controller.js"><path d="M482,125.0769 C482,142.5769 482,160.6769 482,178.1569" fill="none" id="Express Application-to-fourier-series.controller.js" style="stroke:#181818;stroke-width:1;"/><polygon fill="#181818" points="482,184.1569,486,175.1569,482,179.1569,478,175.1569,482,184.1569" style="stroke:#181818;stroke-width:1;"/></g><!--link fourier-series.controller.js to /api/fourier-series/*--><g class="link" data-entity-1="fourier-series.controller.js" data-entity-2="/api/fourier-series/*" data-source-line="29" data-uid="lnk19" id="link_fourier-series.controller.js_/api/fourier-series/*"><path d="M482,231.1869 C482,252.5069 482,278.4069 482,299.7069" fill="none" id="fourier-series.controller.js-to-/api/fourier-series/*" style="stroke:#181818;stroke-width:1;"/><polygon fill="#181818" points="482,305.7069,486,296.7069,482,300.7069,478,296.7069,482,305.7069" style="stroke:#181818;stroke-width:1;"/></g><!--link /api/fourier-series/* to computeTrigonometricSeries()--><g class="link" data-entity-1="/api/fourier-series/*" data-entity-2="computeTrigonometricSeries()" data-source-line="30" data-uid="lnk20" id="link_/api/fourier-series/*_computeTrigonometricSeries()"><path d="M423.2,352.6669 C377.74,370.1669 320.7198,392.1123 275.2898,409.5923" fill="none" id="/api/fourier-series/*-to-computeTrigonometricSeries()" style="stroke:#181818;stroke-width:1;"/><polygon fill="#181818" points="269.69,411.7469,279.5261,412.2481,274.3565,409.9514,276.6533,404.7818,269.69,411.7469" style="stroke:#181818;stroke-width:1;"/></g><!--link /api/fourier-series/* to computeComplexSeries()--><g class="link" data-entity-1="/api/fourier-series/*" data-entity-2="computeComplexSeries()" data-source-line="31" data-uid="lnk21" id="link_/api/fourier-series/*_computeComplexSeries()"><path d="M482,352.6669 C482,370.1669 482,388.2669 482,405.7469" fill="none" id="/api/fourier-series/*-to-computeComplexSeries()" style="stroke:#181818;stroke-width:1;"/><polygon fill="#181818" points="482,411.7469,486,402.7469,482,406.7469,478,402.7469,482,411.7469" style="stroke:#181818;stroke-width:1;"/></g><!--link /api/fourier-series/* to computeTrigonometricSeriesPiecewise()--><g class="link" data-entity-1="/api/fourier-series/*" data-entity-2="computeTrigonometricSeriesPiecewise()" data-source-line="32" data-uid="lnk22" id="link_/api/fourier-series/*_computeTrigonometricSeriesPiecewise()"><path d="M548.18,352.6669 C599.34,370.1669 664.1426,392.3259 715.2726,409.8059" fill="none" id="/api/fourier-series/*-to-computeTrigonometricSeriesPiecewise()" style="stroke:#181818;stroke-width:1;"/><polygon fill="#181818" points="720.95,411.7469,713.7279,405.0505,716.2188,410.1294,711.14,412.6204,720.95,411.7469" style="stroke:#181818;stroke-width:1;"/></g><!--link computeTrigonometricSeries() to maxima.util.js--><g class="link" data-entity-1="computeTrigonometricSeries()" data-entity-2="maxima.util.js" data-source-line="34" data-uid="lnk23" id="link_computeTrigonometricSeries()_maxima.util.js"><path d="M233.19,458.7769 C254.29,480.1069 281.6215,507.7303 302.6815,529.0303" fill="none" id="computeTrigonometricSeries()-to-maxima.util.js" style="stroke:#181818;stroke-width:1;"/><polygon fill="#181818" points="306.9,533.2969,303.4166,524.0846,303.3846,529.7414,297.7278,529.7093,306.9,533.2969" style="stroke:#181818;stroke-width:1;"/></g><!--link computeTrigonometricSeries() to fourier-validation.util.js--><g class="link" data-entity-1="computeTrigonometricSeries()" data-entity-2="fourier-validation.util.js" data-source-line="35" data-uid="lnk24" id="link_computeTrigonometricSeries()_fourier-validation.util.js"><path d="M194.45,458.7769 C178.71,480.1069 158.7514,507.1682 143.0414,528.4682" fill="none" id="computeTrigonometricSeries()-to-fourier-validation.util.js" style="stroke:#181818;stroke-width:1;"/><polygon fill="#181818" points="139.48,533.2969,148.0413,528.4281,142.4479,529.273,141.603,523.6796,139.48,533.2969" style="stroke:#181818;stroke-width:1;"/></g><!--link computeTrigonometricSeriesPiecewise() to piecewise-series.util.js--><g class="link" data-entity-1="computeTrigonometricSeriesPiecewise()" data-entity-2="piecewise-series.util.js" data-source-line="36" data-uid="lnk25" id="link_computeTrigonometricSeriesPiecewise()_piecewise-series.util.js"><path d="M779.29,458.7769 C771.96,480.1069 762.95,506.3226 755.63,527.6226" fill="none" id="computeTrigonometricSeriesPiecewise()-to-piecewise-series.util.js" style="stroke:#181818;stroke-width:1;"/><polygon fill="#181818" points="753.68,533.2969,760.3879,526.0855,755.305,528.5683,752.8222,523.4854,753.68,533.2969" style="stroke:#181818;stroke-width:1;"/></g><!--link computeComplexSeries() to maxima-rules.util.js--><g class="link" data-entity-1="computeComplexSeries()" data-entity-2="maxima-rules.util.js" data-source-line="37" data-uid="lnk26" id="link_computeComplexSeries()_maxima-rules.util.js"><path d="M489.71,458.7769 C497.04,480.1069 506.05,506.3226 513.37,527.6226" fill="none" id="computeComplexSeries()-to-maxima-rules.util.js" style="stroke:#181818;stroke-width:1;"/><polygon fill="#181818" points="515.32,533.2969,516.1778,523.4854,513.695,528.5683,508.6121,526.0855,515.32,533.2969" style="stroke:#181818;stroke-width:1;"/></g><!--link maxima.util.js to Command Line Interface--><g class="link" data-entity-1="maxima.util.js" data-entity-2="Command Line Interface" data-source-line="39" data-uid="lnk27" id="link_maxima.util.js_Command Line Interface"><path d="M329,580.0769 C329,601.4069 329,627.2969 329,648.5969" fill="none" id="maxima.util.js-to-Command Line Interface" style="stroke:#181818;stroke-width:1;"/><polygon fill="#181818" points="329,654.5969,333,645.5969,329,649.5969,325,645.5969,329,654.5969" style="stroke:#181818;stroke-width:1;"/></g><!--link Command Line Interface to Maxima CAS Engine--><g class="link" data-entity-1="Command Line Interface" data-entity-2="Maxima CAS Engine" data-source-line="40" data-uid="lnk28" id="link_Command Line Interface_Maxima CAS Engine"><path d="M329,701.5669 C329,719.0569 329,737.1569 329,754.6369" fill="none" id="Command Line Interface-to-Maxima CAS Engine" style="stroke:#181818;stroke-width:1;"/><polygon fill="#181818" points="329,760.6369,333,751.6369,329,755.6369,325,751.6369,329,760.6369" style="stroke:#181818;stroke-width:1;"/></g><!--SRC=[dP9DQiCm48NtEiMGJN_0oGqA8QIqa49eqbN9GYWJCwqigPASEfIUgaVenQf83TY9xOQkZ3KpdzxeFKzU8epjMqaUXIyjXtNuDv845_JzfI23MrrQGWiB31_7cE7YbUS8WxlbSWuplaCxW0y6y3ojZ4Ndmdm4UD9gjJ_V94Bc8c4ejF9MIubs-E9MxBE637TiIM23EkA6Hat4w3foXIvCwN5fATTA5-WjYQJoyghUC0aVYLLRgMLsJYZmdHpkE-lYdZn9yhk6E7DeFYnNXgQuLYWMlAA2DuuEUsovf7LyePQ9p9QoZggBc5OUhU8I5ZldiN2_EiAA1LThc952k5UXPyC5HkP3PC9al82foaCz0Y_W4MNmM2jqWC4G1C4DTwpLHSYocxzyx2ydGeUN7UTffj_bSqPF_F_dVOrai7vXYNMSW7Dc-Y9ofhW4wivcryFKHH-7a1qlavgxWjTLI5EdcVm1]--></g></svg>