<svg xmlns="http://www.w3.org/2000/svg" xmlns:xlink="http://www.w3.org/1999/xlink" contentStyleType="text/css" data-diagram-type="DESCRIPTION" height="776px" preserveAspectRatio="none" style="width:619px;height:776px;background:#FFFFFF;" version="1.1" viewBox="0 0 619 776" width="619px" zoomAndPan="magnify"><title>Diagrama de Flujo - Interfaz de Usuario Principal</title><defs/><g><g class="title" data-source-line="1"><text fill="#000000" font-family="sans-serif" font-size="14" font-weight="bold" lengthAdjust="spacing" textLength="385.6699" x="109.665" y="22.9951">Diagrama de Flujo - Interfaz de Usuario Principal</text></g><!--cluster Main Container--><g class="cluster" data-entity="Main Container" data-source-line="3" data-uid="ent0002" id="cluster_Main Container"><path d="M8.5,43.2969 L129.6826,43.2969 A3.75,3.75 0 0 1 132.1826,45.7969 L139.1826,65.5938 L289.5,65.5938 A2.5,2.5 0 0 1 292,68.0938 L292,767.3569 A2.5,2.5 0 0 1 289.5,769.8569 L8.5,769.8569 A2.5,2.5 0 0 1 6,767.3569 L6,45.7969 A2.5,2.5 0 0 1 8.5,43.2969" fill="none" style="stroke:#000000;stroke-width:1.5;"/><line style="stroke:#000000;stroke-width:1.5;" x1="6" x2="139.1826" y1="65.5938" y2="65.5938"/><text fill="#000000" font-family="sans-serif" font-size="14" font-weight="bold" lengthAdjust="spacing" textLength="120.1826" x="10" y="58.292">Main Container</text></g><!--cluster Mobile-Specific UI--><g class="cluster" data-entity="Mobile-Specific UI" data-source-line="12" data-uid="ent0009" id="cluster_Mobile-Specific UI"><path d="M318.5,43.2969 L461.3115,43.2969 A3.75,3.75 0 0 1 463.8115,45.7969 L470.8115,65.5938 L609.5,65.5938 A2.5,2.5 0 0 1 612,68.0938 L612,276.9769 A2.5,2.5 0 0 1 609.5,279.4769 L318.5,279.4769 A2.5,2.5 0 0 1 316,276.9769 L316,45.7969 A2.5,2.5 0 0 1 318.5,43.2969" fill="none" style="stroke:#000000;stroke-width:1.5;"/><line style="stroke:#000000;stroke-width:1.5;" x1="316" x2="470.8115" y1="65.5938" y2="65.5938"/><text fill="#000000" font-family="sans-serif" font-size="14" font-weight="bold" lengthAdjust="spacing" textLength="141.8115" x="320" y="58.292">Mobile-Specific UI</text></g><!--entity Header Section\n- Back to Menu Button--><g class="entity" data-entity="Header Section\n- Back to Menu Button" data-source-line="4" data-uid="ent0003" id="entity_Header Section\n- Back to Menu Button"><rect fill="#F1F1F1" height="62.5938" rx="2.5" ry="2.5" style="stroke:#181818;stroke-width:0.5;" width="196.2285" x="50.89" y="78.2969"/><rect fill="#F1F1F1" height="10" style="stroke:#181818;stroke-width:0.5;" width="15" x="227.1185" y="83.2969"/><rect fill="#F1F1F1" height="2" style="stroke:#181818;stroke-width:0.5;" width="4" x="225.1185" y="85.2969"/><rect fill="#F1F1F1" height="2" style="stroke:#181818;stroke-width:0.5;" width="4" x="225.1185" y="89.2969"/><text fill="#000000" font-family="sans-serif" font-size="14" lengthAdjust="spacing" textLength="107.4404" x="65.89" y="111.292">Header Section</text><text fill="#000000" font-family="sans-serif" font-size="14" lengthAdjust="spacing" textLength="156.2285" x="65.89" y="127.5889">- Back to Menu Button</text></g><!--entity Variable Selection\n- x (Spatial) or t (Temporal)--><g class="entity" data-entity="Variable Selection\n- x (Spatial) or t (Temporal)" data-source-line="5" data-uid="ent0004" id="entity_Variable Selection\n- x (Spatial) or t (Temporal)"><rect fill="#F1F1F1" height="62.5938" rx="2.5" ry="2.5" style="stroke:#181818;stroke-width:0.5;" width="231.9258" x="33.04" y="200.8869"/><rect fill="#F1F1F1" height="10" style="stroke:#181818;stroke-width:0.5;" width="15" x="244.9658" y="205.8869"/><rect fill="#F1F1F1" height="2" style="stroke:#181818;stroke-width:0.5;" width="4" x="242.9658" y="207.8869"/><rect fill="#F1F1F1" height="2" style="stroke:#181818;stroke-width:0.5;" width="4" x="242.9658" y="211.8869"/><text fill="#000000" font-family="sans-serif" font-size="14" lengthAdjust="spacing" textLength="126.7383" x="48.04" y="233.882">Variable Selection</text><text fill="#000000" font-family="sans-serif" font-size="14" lengthAdjust="spacing" textLength="191.9258" x="48.04" y="250.1789">- x (Spatial) or t (Temporal)</text></g><!--entity Math Keyboard Toggle\n(Desktop Only)--><g class="entity" data-entity="Math Keyboard Toggle\n(Desktop Only)" data-source-line="6" data-uid="ent0005" id="entity_Math Keyboard Toggle\n(Desktop Only)"><rect fill="#F1F1F1" height="62.5938" rx="2.5" ry="2.5" style="stroke:#181818;stroke-width:0.5;" width="198.0674" x="49.97" y="323.4769"/><rect fill="#F1F1F1" height="10" style="stroke:#181818;stroke-width:0.5;" width="15" x="228.0374" y="328.4769"/><rect fill="#F1F1F1" height="2" style="stroke:#181818;stroke-width:0.5;" width="4" x="226.0374" y="330.4769"/><rect fill="#F1F1F1" height="2" style="stroke:#181818;stroke-width:0.5;" width="4" x="226.0374" y="334.4769"/><text fill="#000000" font-family="sans-serif" font-size="14" lengthAdjust="spacing" textLength="158.0674" x="64.97" y="356.472">Math Keyboard Toggle</text><text fill="#000000" font-family="sans-serif" font-size="14" lengthAdjust="spacing" textLength="105.1777" x="64.97" y="372.7689">(Desktop Only)</text></g><!--entity Piecewise Function Input\n- Multiple Segments Support--><g class="entity" data-entity="Piecewise Function Input\n- Multiple Segments Support" data-source-line="7" data-uid="ent0006" id="entity_Piecewise Function Input\n- Multiple Segments Support"><rect fill="#F1F1F1" height="62.5938" rx="2.5" ry="2.5" style="stroke:#181818;stroke-width:0.5;" width="239.6504" x="29.17" y="446.0769"/><rect fill="#F1F1F1" height="10" style="stroke:#181818;stroke-width:0.5;" width="15" x="248.8204" y="451.0769"/><rect fill="#F1F1F1" height="2" style="stroke:#181818;stroke-width:0.5;" width="4" x="246.8204" y="453.0769"/><rect fill="#F1F1F1" height="2" style="stroke:#181818;stroke-width:0.5;" width="4" x="246.8204" y="457.0769"/><text fill="#000000" font-family="sans-serif" font-size="14" lengthAdjust="spacing" textLength="173.9678" x="44.17" y="479.072">Piecewise Function Input</text><text fill="#000000" font-family="sans-serif" font-size="14" lengthAdjust="spacing" textLength="199.6504" x="44.17" y="495.3689">- Multiple Segments Support</text></g><!--entity Calculation Type Selection\n- Series vs DFT--><g class="entity" data-entity="Calculation Type Selection\n- Series vs DFT" data-source-line="8" data-uid="ent0007" id="entity_Calculation Type Selection\n- Series vs DFT"><rect fill="#F1F1F1" height="62.5938" rx="2.5" ry="2.5" style="stroke:#181818;stroke-width:0.5;" width="225.8555" x="36.07" y="568.6669"/><rect fill="#F1F1F1" height="10" style="stroke:#181818;stroke-width:0.5;" width="15" x="241.9255" y="573.6669"/><rect fill="#F1F1F1" height="2" style="stroke:#181818;stroke-width:0.5;" width="4" x="239.9255" y="575.6669"/><rect fill="#F1F1F1" height="2" style="stroke:#181818;stroke-width:0.5;" width="4" x="239.9255" y="579.6669"/><text fill="#000000" font-family="sans-serif" font-size="14" lengthAdjust="spacing" textLength="185.8555" x="51.07" y="601.662">Calculation Type Selection</text><text fill="#000000" font-family="sans-serif" font-size="14" lengthAdjust="spacing" textLength="104.4189" x="51.07" y="617.9589">- Series vs DFT</text></g><!--entity Submit Button\n- Dynamic Text Based on Type--><g class="entity" data-entity="Submit Button\n- Dynamic Text Based on Type" data-source-line="9" data-uid="ent0008" id="entity_Submit Button\n- Dynamic Text Based on Type"><rect fill="#F1F1F1" height="62.5938" rx="2.5" ry="2.5" style="stroke:#181818;stroke-width:0.5;" width="254.7373" x="21.63" y="691.2669"/><rect fill="#F1F1F1" height="10" style="stroke:#181818;stroke-width:0.5;" width="15" x="256.3673" y="696.2669"/><rect fill="#F1F1F1" height="2" style="stroke:#181818;stroke-width:0.5;" width="4" x="254.3673" y="698.2669"/><rect fill="#F1F1F1" height="2" style="stroke:#181818;stroke-width:0.5;" width="4" x="254.3673" y="702.2669"/><text fill="#000000" font-family="sans-serif" font-size="14" lengthAdjust="spacing" textLength="101.0078" x="36.63" y="724.262">Submit Button</text><text fill="#000000" font-family="sans-serif" font-size="14" lengthAdjust="spacing" textLength="214.7373" x="36.63" y="740.5589">- Dynamic Text Based on Type</text></g><!--entity Mobile Math Keyboard\n- Tabbed Interface--><g class="entity" data-entity="Mobile Math Keyboard\n- Tabbed Interface" data-source-line="13" data-uid="ent0010" id="entity_Mobile Math Keyboard\n- Tabbed Interface"><rect fill="#F1F1F1" height="62.5938" rx="2.5" ry="2.5" style="stroke:#181818;stroke-width:0.5;" width="196.5977" x="365.7" y="78.2969"/><rect fill="#F1F1F1" height="10" style="stroke:#181818;stroke-width:0.5;" width="15" x="542.2977" y="83.2969"/><rect fill="#F1F1F1" height="2" style="stroke:#181818;stroke-width:0.5;" width="4" x="540.2977" y="85.2969"/><rect fill="#F1F1F1" height="2" style="stroke:#181818;stroke-width:0.5;" width="4" x="540.2977" y="89.2969"/><text fill="#000000" font-family="sans-serif" font-size="14" lengthAdjust="spacing" textLength="156.5977" x="380.7" y="111.292">Mobile Math Keyboard</text><text fill="#000000" font-family="sans-serif" font-size="14" lengthAdjust="spacing" textLength="129.0352" x="380.7" y="127.5889">- Tabbed Interface</text></g><!--entity Keyboard Tabs\n- Numbers, Variables, Functions--><g class="entity" data-entity="Keyboard Tabs\n- Numbers, Variables, Functions" data-source-line="14" data-uid="ent0011" id="entity_Keyboard Tabs\n- Numbers, Variables, Functions"><rect fill="#F1F1F1" height="62.5938" rx="2.5" ry="2.5" style="stroke:#181818;stroke-width:0.5;" width="263.5078" x="332.25" y="200.8869"/><rect fill="#F1F1F1" height="10" style="stroke:#181818;stroke-width:0.5;" width="15" x="575.7578" y="205.8869"/><rect fill="#F1F1F1" height="2" style="stroke:#181818;stroke-width:0.5;" width="4" x="573.7578" y="207.8869"/><rect fill="#F1F1F1" height="2" style="stroke:#181818;stroke-width:0.5;" width="4" x="573.7578" y="211.8869"/><text fill="#000000" font-family="sans-serif" font-size="14" lengthAdjust="spacing" textLength="104.5146" x="347.25" y="233.882">Keyboard Tabs</text><text fill="#000000" font-family="sans-serif" font-size="14" lengthAdjust="spacing" textLength="223.5078" x="347.25" y="250.1789">- Numbers, Variables, Functions</text></g><!--link Header Section\n- Back to Menu Button to Variable Selection\n- x (Spatial) or t (Temporal)--><g class="link" data-entity-1="Header Section\n- Back to Menu Button" data-entity-2="Variable Selection\n- x (Spatial) or t (Temporal)" data-source-line="18" data-uid="lnk12" id="link_Header Section\n- Back to Menu Button_Variable Selection\n- x (Spatial) or t (Temporal)"><path d="M149,141.3369 C149,159.4769 149,176.3669 149,194.4969" fill="none" id="Header Section\n- Back to Menu Button-to-Variable Selection\n- x (Spatial) or t (Temporal)" style="stroke:#181818;stroke-width:1;"/><polygon fill="#181818" points="149,200.4969,153,191.4969,149,195.4969,145,191.4969,149,200.4969" style="stroke:#181818;stroke-width:1;"/></g><!--link Variable Selection\n- x (Spatial) or t (Temporal) to Math Keyboard Toggle\n(Desktop Only)--><g class="link" data-entity-1="Variable Selection\n- x (Spatial) or t (Temporal)" data-entity-2="Math Keyboard Toggle\n(Desktop Only)" data-source-line="19" data-uid="lnk13" id="link_Variable Selection\n- x (Spatial) or t (Temporal)_Math Keyboard Toggle\n(Desktop Only)"><path d="M149,263.9269 C149,282.0669 149,298.9569 149,317.0869" fill="none" id="Variable Selection\n- x (Spatial) or t (Temporal)-to-Math Keyboard Toggle\n(Desktop Only)" style="stroke:#181818;stroke-width:1;"/><polygon fill="#181818" points="149,323.0869,153,314.0869,149,318.0869,145,314.0869,149,323.0869" style="stroke:#181818;stroke-width:1;"/></g><!--link Math Keyboard Toggle\n(Desktop Only) to Piecewise Function Input\n- Multiple Segments Support--><g class="link" data-entity-1="Math Keyboard Toggle\n(Desktop Only)" data-entity-2="Piecewise Function Input\n- Multiple Segments Support" data-source-line="20" data-uid="lnk14" id="link_Math Keyboard Toggle\n(Desktop Only)_Piecewise Function Input\n- Multiple Segments Support"><path d="M149,386.5169 C149,404.6669 149,421.5469 149,439.6869" fill="none" id="Math Keyboard Toggle\n(Desktop Only)-to-Piecewise Function Input\n- Multiple Segments Support" style="stroke:#181818;stroke-width:1;"/><polygon fill="#181818" points="149,445.6869,153,436.6869,149,440.6869,145,436.6869,149,445.6869" style="stroke:#181818;stroke-width:1;"/></g><!--link Piecewise Function Input\n- Multiple Segments Support to Calculation Type Selection\n- Series vs DFT--><g class="link" data-entity-1="Piecewise Function Input\n- Multiple Segments Support" data-entity-2="Calculation Type Selection\n- Series vs DFT" data-source-line="21" data-uid="lnk15" id="link_Piecewise Function Input\n- Multiple Segments Support_Calculation Type Selection\n- Series vs DFT"><path d="M149,509.1169 C149,527.2569 149,544.1469 149,562.2769" fill="none" id="Piecewise Function Input\n- Multiple Segments Support-to-Calculation Type Selection\n- Series vs DFT" style="stroke:#181818;stroke-width:1;"/><polygon fill="#181818" points="149,568.2769,153,559.2769,149,563.2769,145,559.2769,149,568.2769" style="stroke:#181818;stroke-width:1;"/></g><!--link Calculation Type Selection\n- Series vs DFT to Submit Button\n- Dynamic Text Based on Type--><g class="link" data-entity-1="Calculation Type Selection\n- Series vs DFT" data-entity-2="Submit Button\n- Dynamic Text Based on Type" data-source-line="22" data-uid="lnk16" id="link_Calculation Type Selection\n- Series vs DFT_Submit Button\n- Dynamic Text Based on Type"><path d="M149,631.7069 C149,649.8569 149,666.7369 149,684.8769" fill="none" id="Calculation Type Selection\n- Series vs DFT-to-Submit Button\n- Dynamic Text Based on Type" style="stroke:#181818;stroke-width:1;"/><polygon fill="#181818" points="149,690.8769,153,681.8769,149,685.8769,145,681.8769,149,690.8769" style="stroke:#181818;stroke-width:1;"/></g><!--link Mobile Math Keyboard\n- Tabbed Interface to Keyboard Tabs\n- Numbers, Variables, Functions--><g class="link" data-entity-1="Mobile Math Keyboard\n- Tabbed Interface" data-entity-2="Keyboard Tabs\n- Numbers, Variables, Functions" data-source-line="25" data-uid="lnk17" id="link_Mobile Math Keyboard\n- Tabbed Interface_Keyboard Tabs\n- Numbers, Variables, Functions"><path d="M464,141.3369 C464,159.4769 464,176.3669 464,194.4969" fill="none" id="Mobile Math Keyboard\n- Tabbed Interface-to-Keyboard Tabs\n- Numbers, Variables, Functions" style="stroke:#181818;stroke-width:1;"/><polygon fill="#181818" points="464,200.4969,468,191.4969,464,195.4969,460,191.4969,464,200.4969" style="stroke:#181818;stroke-width:1;"/></g><!--SRC=[dLBBJiCm4BptArPSA1Bv1GvjLL6XGgMaN2Y7JReD2uvjsUlIWlWgFe4VmtcqF4vjJuwTsPdTcHKMHJ1YB1rM24k2iGhF1XAOQ26tmhVwRUu3EZOmSwmBjgXwFOl52vO4PrDa3KEZ9Pxapk2z1_1mJRWa1oaLmaOlT0A3Y0SnC2KTO114Z7wiaVUH6FFOGqhg1xs1VcfH6DK560S2_OmgQroyDrLJb2UueMrkq2qXCsMfQA7x8_8lOYpSQRLjWJEcWbxPnxc2RkZZO3P8BJ8DIjWsqcL5MZoamKOHQIg7g8gWi2d9jlPVWoav9Wzh3wDnrk3Ja5SitMWrPBJLM7416MtYCtfQGaVrsFluRQ39ML6IMYfu5V7pIMTY-mF-p5eJPvZdaQmBgA16_iSCp7sDkWrLJivVmixX-Bdpm3STd7TPstsg1-O6IN9rKd8drBHQX-Lz6AnbF74nJgnhDOzQgQFGBVzHAxYFl_hwN7FC_k1rQyMENBXl]--></g></svg>