<svg xmlns="http://www.w3.org/2000/svg" xmlns:xlink="http://www.w3.org/1999/xlink" contentStyleType="text/css" data-diagram-type="DESCRIPTION" height="285px" preserveAspectRatio="none" style="width:1139px;height:285px;background:#FFFFFF;" version="1.1" viewBox="0 0 1139 285" width="1139px" zoomAndPan="magnify"><title>Estructura e Interfaz de Pieza de Funci&#243;n</title><defs/><g><g class="title" data-source-line="1"><text fill="#000000" font-family="sans-serif" font-size="14" font-weight="bold" lengthAdjust="spacing" textLength="326.8262" x="399.0869" y="22.9951">Estructura e Interfaz de Pieza de Funci&#243;n</text></g><!--cluster Piece Structure--><g class="cluster" data-entity="Piece Structure" data-source-line="3" data-uid="ent0002" id="cluster_Piece Structure"><path d="M8.5,43.2969 L131.7266,43.2969 A3.75,3.75 0 0 1 134.2266,45.7969 L141.2266,65.5938 L1129.5,65.5938 A2.5,2.5 0 0 1 1132,68.0938 L1132,154.3869 A2.5,2.5 0 0 1 1129.5,156.8869 L8.5,156.8869 A2.5,2.5 0 0 1 6,154.3869 L6,45.7969 A2.5,2.5 0 0 1 8.5,43.2969" fill="none" style="stroke:#000000;stroke-width:1.5;"/><line style="stroke:#000000;stroke-width:1.5;" x1="6" x2="141.2266" y1="65.5938" y2="65.5938"/><text fill="#000000" font-family="sans-serif" font-size="14" font-weight="bold" lengthAdjust="spacing" textLength="122.2266" x="10" y="58.292">Piece Structure</text></g><!--cluster Piece Interface--><g class="cluster" data-entity="Piece Interface" data-source-line="10" data-uid="ent0007" id="cluster_Piece Interface"><path d="M45.5,180.8869 L165.3223,180.8869 A3.75,3.75 0 0 1 167.8223,183.3869 L174.8223,203.1837 L872.5,203.1837 A2.5,2.5 0 0 1 875,205.6837 L875,275.6869 A2.5,2.5 0 0 1 872.5,278.1869 L45.5,278.1869 A2.5,2.5 0 0 1 43,275.6869 L43,183.3869 A2.5,2.5 0 0 1 45.5,180.8869" fill="none" style="stroke:#000000;stroke-width:1.5;"/><line style="stroke:#000000;stroke-width:1.5;" x1="43" x2="174.8223" y1="203.1837" y2="203.1837"/><text fill="#000000" font-family="sans-serif" font-size="14" font-weight="bold" lengthAdjust="spacing" textLength="118.8223" x="47" y="195.882">Piece Interface</text></g><!--entity Function Expression MathQuill Field--><g class="entity" data-entity="Function Expression MathQuill Field" data-source-line="4" data-uid="ent0003" id="entity_Function Expression MathQuill Field"><rect fill="#F1F1F1" height="46.2969" rx="2.5" ry="2.5" style="stroke:#181818;stroke-width:0.5;" width="289.8809" x="22.06" y="86.4469"/><rect fill="#F1F1F1" height="10" style="stroke:#181818;stroke-width:0.5;" width="15" x="291.9409" y="91.4469"/><rect fill="#F1F1F1" height="2" style="stroke:#181818;stroke-width:0.5;" width="4" x="289.9409" y="93.4469"/><rect fill="#F1F1F1" height="2" style="stroke:#181818;stroke-width:0.5;" width="4" x="289.9409" y="97.4469"/><text fill="#000000" font-family="sans-serif" font-size="14" lengthAdjust="spacing" textLength="249.8809" x="37.06" y="119.442">Function Expression MathQuill Field</text></g><!--entity Start Interval MathQuill Field--><g class="entity" data-entity="Start Interval MathQuill Field" data-source-line="5" data-uid="ent0004" id="entity_Start Interval MathQuill Field"><rect fill="#F1F1F1" height="46.2969" rx="2.5" ry="2.5" style="stroke:#181818;stroke-width:0.5;" width="241.0791" x="346.46" y="86.4469"/><rect fill="#F1F1F1" height="10" style="stroke:#181818;stroke-width:0.5;" width="15" x="567.5391" y="91.4469"/><rect fill="#F1F1F1" height="2" style="stroke:#181818;stroke-width:0.5;" width="4" x="565.5391" y="93.4469"/><rect fill="#F1F1F1" height="2" style="stroke:#181818;stroke-width:0.5;" width="4" x="565.5391" y="97.4469"/><text fill="#000000" font-family="sans-serif" font-size="14" lengthAdjust="spacing" textLength="201.0791" x="361.46" y="119.442">Start Interval MathQuill Field</text></g><!--entity End Interval MathQuill Field--><g class="entity" data-entity="End Interval MathQuill Field" data-source-line="6" data-uid="ent0005" id="entity_End Interval MathQuill Field"><rect fill="#F1F1F1" height="46.2969" rx="2.5" ry="2.5" style="stroke:#181818;stroke-width:0.5;" width="233.4844" x="622.26" y="86.4469"/><rect fill="#F1F1F1" height="10" style="stroke:#181818;stroke-width:0.5;" width="15" x="835.7444" y="91.4469"/><rect fill="#F1F1F1" height="2" style="stroke:#181818;stroke-width:0.5;" width="4" x="833.7444" y="93.4469"/><rect fill="#F1F1F1" height="2" style="stroke:#181818;stroke-width:0.5;" width="4" x="833.7444" y="97.4469"/><text fill="#000000" font-family="sans-serif" font-size="14" lengthAdjust="spacing" textLength="193.4844" x="637.26" y="119.442">End Interval MathQuill Field</text></g><!--entity Add/Remove Button\n(Dynamic Based on Index)--><g class="entity" data-entity="Add/Remove Button\n(Dynamic Based on Index)" data-source-line="7" data-uid="ent0006" id="entity_Add/Remove Button\n(Dynamic Based on Index)"><rect fill="#F1F1F1" height="62.5938" rx="2.5" ry="2.5" style="stroke:#181818;stroke-width:0.5;" width="225.2197" x="890.39" y="78.2969"/><rect fill="#F1F1F1" height="10" style="stroke:#181818;stroke-width:0.5;" width="15" x="1095.6097" y="83.2969"/><rect fill="#F1F1F1" height="2" style="stroke:#181818;stroke-width:0.5;" width="4" x="1093.6097" y="85.2969"/><rect fill="#F1F1F1" height="2" style="stroke:#181818;stroke-width:0.5;" width="4" x="1093.6097" y="89.2969"/><text fill="#000000" font-family="sans-serif" font-size="14" lengthAdjust="spacing" textLength="140.8545" x="905.39" y="111.292">Add/Remove Button</text><text fill="#000000" font-family="sans-serif" font-size="14" lengthAdjust="spacing" textLength="185.2197" x="905.39" y="127.5889">(Dynamic Based on Index)</text></g><!--entity funcField: MathQuill Instance--><g class="entity" data-entity="funcField: MathQuill Instance" data-source-line="11" data-uid="ent0008" id="entity_funcField: MathQuill Instance"><rect fill="#F1F1F1" height="46.2969" rx="2.5" ry="2.5" style="stroke:#181818;stroke-width:0.5;" width="243.4512" x="59.27" y="215.8869"/><rect fill="#F1F1F1" height="10" style="stroke:#181818;stroke-width:0.5;" width="15" x="282.7212" y="220.8869"/><rect fill="#F1F1F1" height="2" style="stroke:#181818;stroke-width:0.5;" width="4" x="280.7212" y="222.8869"/><rect fill="#F1F1F1" height="2" style="stroke:#181818;stroke-width:0.5;" width="4" x="280.7212" y="226.8869"/><text fill="#000000" font-family="sans-serif" font-size="14" lengthAdjust="spacing" textLength="203.4512" x="74.27" y="248.882">funcField: MathQuill Instance</text></g><!--entity startField: MathQuill Instance--><g class="entity" data-entity="startField: MathQuill Instance" data-source-line="12" data-uid="ent0009" id="entity_startField: MathQuill Instance"><rect fill="#F1F1F1" height="46.2969" rx="2.5" ry="2.5" style="stroke:#181818;stroke-width:0.5;" width="245.6865" x="338.16" y="215.8869"/><rect fill="#F1F1F1" height="10" style="stroke:#181818;stroke-width:0.5;" width="15" x="563.8465" y="220.8869"/><rect fill="#F1F1F1" height="2" style="stroke:#181818;stroke-width:0.5;" width="4" x="561.8465" y="222.8869"/><rect fill="#F1F1F1" height="2" style="stroke:#181818;stroke-width:0.5;" width="4" x="561.8465" y="226.8869"/><text fill="#000000" font-family="sans-serif" font-size="14" lengthAdjust="spacing" textLength="205.6865" x="353.16" y="248.882">startField: MathQuill Instance</text></g><!--entity endField: MathQuill Instance--><g class="entity" data-entity="endField: MathQuill Instance" data-source-line="13" data-uid="ent0010" id="entity_endField: MathQuill Instance"><rect fill="#F1F1F1" height="46.2969" rx="2.5" ry="2.5" style="stroke:#181818;stroke-width:0.5;" width="239.4521" x="619.27" y="215.8869"/><rect fill="#F1F1F1" height="10" style="stroke:#181818;stroke-width:0.5;" width="15" x="838.7221" y="220.8869"/><rect fill="#F1F1F1" height="2" style="stroke:#181818;stroke-width:0.5;" width="4" x="836.7221" y="222.8869"/><rect fill="#F1F1F1" height="2" style="stroke:#181818;stroke-width:0.5;" width="4" x="836.7221" y="226.8869"/><text fill="#000000" font-family="sans-serif" font-size="14" lengthAdjust="spacing" textLength="199.4521" x="634.27" y="248.882">endField: MathQuill Instance</text></g><!--link Function Expression MathQuill Field to funcField: MathQuill Instance--><g class="link" data-entity-1="Function Expression MathQuill Field" data-entity-2="funcField: MathQuill Instance" data-source-line="17" data-uid="lnk11" id="link_Function Expression MathQuill Field_funcField: MathQuill Instance"><path d="M169.47,133.0869 C172.03,156.3769 175.345,186.5927 177.895,209.8127" fill="none" id="Function Expression MathQuill Field-to-funcField: MathQuill Instance" style="stroke:#181818;stroke-width:1;"/><polygon fill="#181818" points="178.55,215.7769,181.5436,206.394,178.0042,210.8068,173.5914,207.2673,178.55,215.7769" style="stroke:#181818;stroke-width:1;"/></g><!--link Start Interval MathQuill Field to startField: MathQuill Instance--><g class="link" data-entity-1="Start Interval MathQuill Field" data-entity-2="startField: MathQuill Instance" data-source-line="18" data-uid="lnk12" id="link_Start Interval MathQuill Field_startField: MathQuill Instance"><path d="M465.94,133.0869 C464.84,156.3769 463.4213,186.5635 462.3313,209.7835" fill="none" id="Start Interval MathQuill Field-to-startField: MathQuill Instance" style="stroke:#181818;stroke-width:1;"/><polygon fill="#181818" points="462.05,215.7769,466.4676,206.9743,462.2845,210.7824,458.4764,206.5992,462.05,215.7769" style="stroke:#181818;stroke-width:1;"/></g><!--link End Interval MathQuill Field to endField: MathQuill Instance--><g class="link" data-entity-1="End Interval MathQuill Field" data-entity-2="endField: MathQuill Instance" data-source-line="19" data-uid="lnk13" id="link_End Interval MathQuill Field_endField: MathQuill Instance"><path d="M739,133.0869 C739,156.3769 739,186.5569 739,209.7769" fill="none" id="End Interval MathQuill Field-to-endField: MathQuill Instance" style="stroke:#181818;stroke-width:1;"/><polygon fill="#181818" points="739,215.7769,743,206.7769,739,210.7769,735,206.7769,739,215.7769" style="stroke:#181818;stroke-width:1;"/></g><!--SRC=[ZP51ImCn48Nl-HL3B-gXUFSWMDp27WHjZzh3aBngC9qjoMof5N-LFy4_PhQxGa79UXl8ctdVUr6l0LGbZQtLDZA1Qb74DH_8WUuz3jmDyrQi__eKOxPiN_aPDCbl5hGSDZ6XTqFqs0dLDqBLVXkHKZVUiRuyj3u4cdi4j-fqI-MelTUEmv-IIbnPSEFSvGARPWUQjQgDFCdvxPlmnbkQSOAZR5wBm_vYPJv-eGz1xG_wEgCVZr-TkDMIbCNYQ9WwwB84uWg237562mIskHSaWcW4uRH-FzHl_bKbJQVNe-HZPVT7niAL_wE_KKp_3G00]--></g></svg>