<svg xmlns="http://www.w3.org/2000/svg" xmlns:xlink="http://www.w3.org/1999/xlink" contentStyleType="text/css" data-diagram-type="SEQUENCE" height="834px" preserveAspectRatio="none" style="width:1488px;height:834px;background:#FFFFFF;" version="1.1" viewBox="0 0 1488 834" width="1488px" zoomAndPan="magnify"><defs/><g><g><title>Client</title><rect fill="#000000" fill-opacity="0.00000" height="672.7891" width="8" x="24.2651" y="81.2969"/><line style="stroke:#181818;stroke-width:0.5;stroke-dasharray:5.0,5.0;" x1="28" x2="28" y1="81.2969" y2="754.0859"/></g><g><title>fourier-series.controller.js</title><rect fill="#000000" fill-opacity="0.00000" height="672.7891" width="8" x="311.5659" y="81.2969"/><line style="stroke:#181818;stroke-width:0.5;stroke-dasharray:5.0,5.0;" x1="315.5298" x2="315.5298" y1="81.2969" y2="754.0859"/></g><g><title>fourier-series-maxima.service.js</title><rect fill="#000000" fill-opacity="0.00000" height="672.7891" width="8" x="697.3696" y="81.2969"/><line style="stroke:#181818;stroke-width:0.5;stroke-dasharray:5.0,5.0;" x1="700.9766" x2="700.9766" y1="81.2969" y2="754.0859"/></g><g><title>fourier-validation.util.js</title><rect fill="#000000" fill-opacity="0.00000" height="672.7891" width="8" x="915.0557" y="81.2969"/><line style="stroke:#181818;stroke-width:0.5;stroke-dasharray:5.0,5.0;" x1="918.7627" x2="918.7627" y1="81.2969" y2="754.0859"/></g><g><title>piecewise-series.util.js</title><rect fill="#000000" fill-opacity="0.00000" height="672.7891" width="8" x="1099.1909" y="81.2969"/><line style="stroke:#181818;stroke-width:0.5;stroke-dasharray:5.0,5.0;" x1="1102.3486" x2="1102.3486" y1="81.2969" y2="754.0859"/></g><g><title>Maxima CAS</title><rect fill="#000000" fill-opacity="0.00000" height="672.7891" width="8" x="1421.5498" y="81.2969"/><line style="stroke:#181818;stroke-width:0.5;stroke-dasharray:5.0,5.0;" x1="1424.6802" x2="1424.6802" y1="81.2969" y2="754.0859"/></g><g class="participant participant-head" data-participant="Client"><text fill="#000000" font-family="sans-serif" font-size="14" lengthAdjust="spacing" textLength="40.5303" x="5" y="77.9951">Client</text><ellipse cx="28.2651" cy="13.5" fill="#E2E2F0" rx="8" ry="8" style="stroke:#181818;stroke-width:0.5;"/><path d="M28.2651,21.5 L28.2651,48.5 M15.2651,29.5 L41.2651,29.5 M28.2651,48.5 L15.2651,63.5 M28.2651,48.5 L41.2651,63.5" fill="none" style="stroke:#181818;stroke-width:0.5;"/></g><g class="participant participant-tail" data-participant="Client"><text fill="#000000" font-family="sans-serif" font-size="14" lengthAdjust="spacing" textLength="40.5303" x="5" y="766.0811">Client</text><ellipse cx="28.2651" cy="777.8828" fill="#E2E2F0" rx="8" ry="8" style="stroke:#181818;stroke-width:0.5;"/><path d="M28.2651,785.8828 L28.2651,812.8828 M15.2651,793.8828 L41.2651,793.8828 M28.2651,812.8828 L15.2651,827.8828 M28.2651,812.8828 L41.2651,827.8828" fill="none" style="stroke:#181818;stroke-width:0.5;"/></g><g class="participant participant-head" data-participant="Controller"><rect fill="#E2E2F0" height="30.2969" rx="2.5" ry="2.5" style="stroke:#181818;stroke-width:0.5;" width="194.0723" x="218.5298" y="50"/><text fill="#000000" font-family="sans-serif" font-size="14" lengthAdjust="spacing" textLength="180.0723" x="225.5298" y="69.9951">fourier-series.controller.js</text></g><g class="participant participant-tail" data-participant="Controller"><rect fill="#E2E2F0" height="30.2969" rx="2.5" ry="2.5" style="stroke:#181818;stroke-width:0.5;" width="194.0723" x="218.5298" y="753.0859"/><text fill="#000000" font-family="sans-serif" font-size="14" lengthAdjust="spacing" textLength="180.0723" x="225.5298" y="773.0811">fourier-series.controller.js</text></g><g class="participant participant-head" data-participant="Service"><rect fill="#E2E2F0" height="30.2969" rx="2.5" ry="2.5" style="stroke:#181818;stroke-width:0.5;" width="238.7861" x="581.9766" y="50"/><text fill="#000000" font-family="sans-serif" font-size="14" lengthAdjust="spacing" textLength="224.7861" x="588.9766" y="69.9951">fourier-series-maxima.service.js</text></g><g class="participant participant-tail" data-participant="Service"><rect fill="#E2E2F0" height="30.2969" rx="2.5" ry="2.5" style="stroke:#181818;stroke-width:0.5;" width="238.7861" x="581.9766" y="753.0859"/><text fill="#000000" font-family="sans-serif" font-size="14" lengthAdjust="spacing" textLength="224.7861" x="588.9766" y="773.0811">fourier-series-maxima.service.js</text></g><g class="participant participant-head" data-participant="Validation"><rect fill="#E2E2F0" height="30.2969" rx="2.5" ry="2.5" style="stroke:#181818;stroke-width:0.5;" width="176.5859" x="830.7627" y="50"/><text fill="#000000" font-family="sans-serif" font-size="14" lengthAdjust="spacing" textLength="162.5859" x="837.7627" y="69.9951">fourier-validation.util.js</text></g><g class="participant participant-tail" data-participant="Validation"><rect fill="#E2E2F0" height="30.2969" rx="2.5" ry="2.5" style="stroke:#181818;stroke-width:0.5;" width="176.5859" x="830.7627" y="753.0859"/><text fill="#000000" font-family="sans-serif" font-size="14" lengthAdjust="spacing" textLength="162.5859" x="837.7627" y="773.0811">fourier-validation.util.js</text></g><g class="participant participant-head" data-participant="Piecewise"><rect fill="#E2E2F0" height="30.2969" rx="2.5" ry="2.5" style="stroke:#181818;stroke-width:0.5;" width="171.6846" x="1017.3486" y="50"/><text fill="#000000" font-family="sans-serif" font-size="14" lengthAdjust="spacing" textLength="157.6846" x="1024.3486" y="69.9951">piecewise-series.util.js</text></g><g class="participant participant-tail" data-participant="Piecewise"><rect fill="#E2E2F0" height="30.2969" rx="2.5" ry="2.5" style="stroke:#181818;stroke-width:0.5;" width="171.6846" x="1017.3486" y="753.0859"/><text fill="#000000" font-family="sans-serif" font-size="14" lengthAdjust="spacing" textLength="157.6846" x="1024.3486" y="773.0811">piecewise-series.util.js</text></g><g class="participant participant-head" data-participant="Maxima"><rect fill="#E2E2F0" height="30.2969" rx="2.5" ry="2.5" style="stroke:#181818;stroke-width:0.5;" width="101.7393" x="1374.6802" y="50"/><text fill="#000000" font-family="sans-serif" font-size="14" lengthAdjust="spacing" textLength="87.7393" x="1381.6802" y="69.9951">Maxima CAS</text></g><g class="participant participant-tail" data-participant="Maxima"><rect fill="#E2E2F0" height="30.2969" rx="2.5" ry="2.5" style="stroke:#181818;stroke-width:0.5;" width="101.7393" x="1374.6802" y="753.0859"/><text fill="#000000" font-family="sans-serif" font-size="14" lengthAdjust="spacing" textLength="87.7393" x="1381.6802" y="773.0811">Maxima CAS</text></g><g class="message" data-participant-1="Client" data-participant-2="Controller"><polygon fill="#181818" points="303.5659,108.4297,313.5659,112.4297,303.5659,116.4297,307.5659,112.4297" style="stroke:#181818;stroke-width:1;"/><line style="stroke:#181818;stroke-width:1;" x1="28.2651" x2="309.5659" y1="112.4297" y2="112.4297"/><text fill="#000000" font-family="sans-serif" font-size="13" lengthAdjust="spacing" textLength="263.3008" x="35.2651" y="107.3638">POST /api/fourierseries/hypergeometrics</text></g><g class="message" data-participant-1="Controller" data-participant-2="Service"><polygon fill="#181818" points="689.3696,137.5625,699.3696,141.5625,689.3696,145.5625,693.3696,141.5625" style="stroke:#181818;stroke-width:1;"/><line style="stroke:#181818;stroke-width:1;" x1="315.5659" x2="695.3696" y1="141.5625" y2="141.5625"/><text fill="#000000" font-family="sans-serif" font-size="13" lengthAdjust="spacing" textLength="361.8037" x="322.5659" y="136.4966">computeHypergeometricSeries(function, period, kNum)</text></g><g class="message" data-participant-1="Service" data-participant-2="Validation"><polygon fill="#181818" points="907.0557,166.6953,917.0557,170.6953,907.0557,174.6953,911.0557,170.6953" style="stroke:#181818;stroke-width:1;"/><line style="stroke:#181818;stroke-width:1;" x1="701.3696" x2="913.0557" y1="170.6953" y2="170.6953"/><text fill="#000000" font-family="sans-serif" font-size="13" lengthAdjust="spacing" textLength="179.8735" x="708.3696" y="165.6294">validateFourierServiceInput</text></g><g class="message" data-participant-1="Validation" data-participant-2="Service"><polygon fill="#181818" points="712.3696,195.8281,702.3696,199.8281,712.3696,203.8281,708.3696,199.8281" style="stroke:#181818;stroke-width:1;"/><line style="stroke:#181818;stroke-width:1;stroke-dasharray:2.0,2.0;" x1="706.3696" x2="918.0557" y1="199.8281" y2="199.8281"/><text fill="#000000" font-family="sans-serif" font-size="13" lengthAdjust="spacing" textLength="108.2529" x="718.3696" y="194.7622">Validation Failed</text></g><g class="message" data-participant-1="Service" data-participant-2="Controller"><polygon fill="#181818" points="326.5659,224.9609,316.5659,228.9609,326.5659,232.9609,322.5659,228.9609" style="stroke:#181818;stroke-width:1;"/><line style="stroke:#181818;stroke-width:1;stroke-dasharray:2.0,2.0;" x1="320.5659" x2="700.3696" y1="228.9609" y2="228.9609"/><text fill="#000000" font-family="sans-serif" font-size="13" lengthAdjust="spacing" textLength="166.8545" x="332.5659" y="223.895">422 Unprocessable Entity</text></g><g class="message" data-participant-1="Controller" data-participant-2="Client"><polygon fill="#181818" points="39.2651,254.0938,29.2651,258.0938,39.2651,262.0938,35.2651,258.0938" style="stroke:#181818;stroke-width:1;"/><line style="stroke:#181818;stroke-width:1;stroke-dasharray:2.0,2.0;" x1="33.2651" x2="314.5659" y1="258.0938" y2="258.0938"/><text fill="#000000" font-family="sans-serif" font-size="13" lengthAdjust="spacing" textLength="225.6592" x="45.2651" y="253.0278">{ success: false, validationDetail }</text></g><rect fill="#EEEEEE" height="3" style="stroke:#EEEEEE;stroke-width:1;" width="1481.4194" x="0" y="286.6602"/><line style="stroke:#000000;stroke-width:1;" x1="0" x2="1481.4194" y1="286.6602" y2="286.6602"/><line style="stroke:#000000;stroke-width:1;" x1="0" x2="1481.4194" y1="289.6602" y2="289.6602"/><rect fill="#EEEEEE" height="23.1328" style="stroke:#000000;stroke-width:2;" width="152.6011" x="664.4092" y="276.0938"/><text fill="#000000" font-family="sans-serif" font-size="13" font-weight="bold" lengthAdjust="spacing" textLength="134.0752" x="670.4092" y="292.1606">Validaci&#243;n Exitosa</text><g class="message" data-participant-1="Service" data-participant-2="Validation"><polygon fill="#181818" points="907.0557,326.3594,917.0557,330.3594,907.0557,334.3594,911.0557,330.3594" style="stroke:#181818;stroke-width:1;"/><line style="stroke:#181818;stroke-width:1;" x1="701.3696" x2="913.0557" y1="330.3594" y2="330.3594"/><text fill="#000000" font-family="sans-serif" font-size="13" lengthAdjust="spacing" textLength="179.8735" x="708.3696" y="325.2935">validateFourierServiceInput</text></g><g class="message" data-participant-1="Validation" data-participant-2="Service"><polygon fill="#181818" points="712.3696,355.4922,702.3696,359.4922,712.3696,363.4922,708.3696,359.4922" style="stroke:#181818;stroke-width:1;"/><line style="stroke:#181818;stroke-width:1;stroke-dasharray:2.0,2.0;" x1="706.3696" x2="918.0557" y1="359.4922" y2="359.4922"/><text fill="#000000" font-family="sans-serif" font-size="13" lengthAdjust="spacing" textLength="114.937" x="718.3696" y="354.4263">Validation Passed</text></g><g class="message" data-participant-1="Service" data-participant-2="Piecewise"><polygon fill="#181818" points="1091.1909,384.625,1101.1909,388.625,1091.1909,392.625,1095.1909,388.625" style="stroke:#181818;stroke-width:1;"/><line style="stroke:#181818;stroke-width:1;" x1="701.3696" x2="1097.1909" y1="388.625" y2="388.625"/><text fill="#000000" font-family="sans-serif" font-size="13" lengthAdjust="spacing" textLength="292.5635" x="708.3696" y="383.5591">executeMaximaJsCommand(validationScript)</text></g><g class="message" data-participant-1="Piecewise" data-participant-2="Maxima"><polygon fill="#181818" points="1413.5498,413.7578,1423.5498,417.7578,1413.5498,421.7578,1417.5498,417.7578" style="stroke:#181818;stroke-width:1;"/><line style="stroke:#181818;stroke-width:1;" x1="1103.1909" x2="1419.5498" y1="417.7578" y2="417.7578"/><text fill="#000000" font-family="sans-serif" font-size="13" lengthAdjust="spacing" textLength="160.8813" x="1110.1909" y="412.6919">Execute validation script</text></g><g class="message" data-participant-1="Maxima" data-participant-2="Piecewise"><polygon fill="#181818" points="1114.1909,442.8906,1104.1909,446.8906,1114.1909,450.8906,1110.1909,446.8906" style="stroke:#181818;stroke-width:1;"/><line style="stroke:#181818;stroke-width:1;stroke-dasharray:2.0,2.0;" x1="1108.1909" x2="1424.5498" y1="446.8906" y2="446.8906"/><text fill="#000000" font-family="sans-serif" font-size="13" lengthAdjust="spacing" textLength="113.1724" x="1120.1909" y="441.8247">Validation results</text></g><g class="message" data-participant-1="Piecewise" data-participant-2="Validation"><polygon fill="#181818" points="930.0557,472.0234,920.0557,476.0234,930.0557,480.0234,926.0557,476.0234" style="stroke:#181818;stroke-width:1;"/><line style="stroke:#181818;stroke-width:1;" x1="924.0557" x2="1102.1909" y1="476.0234" y2="476.0234"/><text fill="#000000" font-family="sans-serif" font-size="13" lengthAdjust="spacing" textLength="114.937" x="936.0557" y="470.9575">Validation Passed</text></g><rect fill="#EEEEEE" height="3" style="stroke:#EEEEEE;stroke-width:1;" width="1481.4194" x="0" y="504.5898"/><line style="stroke:#000000;stroke-width:1;" x1="0" x2="1481.4194" y1="504.5898" y2="504.5898"/><line style="stroke:#000000;stroke-width:1;" x1="0" x2="1481.4194" y1="507.5898" y2="507.5898"/><rect fill="#EEEEEE" height="23.1328" style="stroke:#000000;stroke-width:2;" width="154.4355" x="663.4919" y="494.0234"/><text fill="#000000" font-family="sans-serif" font-size="13" font-weight="bold" lengthAdjust="spacing" textLength="135.9097" x="669.4919" y="510.0903">C&#225;lculo de la Serie</text><g class="message" data-participant-1="Piecewise" data-participant-2="Piecewise"><line style="stroke:#181818;stroke-width:1;" x1="1103.1909" x2="1145.1909" y1="548.2891" y2="548.2891"/><line style="stroke:#181818;stroke-width:1;" x1="1145.1909" x2="1145.1909" y1="548.2891" y2="561.2891"/><line style="stroke:#181818;stroke-width:1;" x1="1104.1909" x2="1145.1909" y1="561.2891" y2="561.2891"/><polygon fill="#181818" points="1114.1909,557.2891,1104.1909,561.2891,1114.1909,565.2891,1110.1909,561.2891" style="stroke:#181818;stroke-width:1;"/><text fill="#000000" font-family="sans-serif" font-size="13" lengthAdjust="spacing" textLength="227.6396" x="1110.1909" y="543.2231">calculateFourierseriesForPiecewise</text></g><g class="message" data-participant-1="Piecewise" data-participant-2="Maxima"><polygon fill="#181818" points="1413.5498,586.4219,1423.5498,590.4219,1413.5498,594.4219,1417.5498,590.4219" style="stroke:#181818;stroke-width:1;"/><line style="stroke:#181818;stroke-width:1;" x1="1103.1909" x2="1419.5498" y1="590.4219" y2="590.4219"/><text fill="#000000" font-family="sans-serif" font-size="13" lengthAdjust="spacing" textLength="298.3589" x="1110.1909" y="585.356">Execute maximaJsCommand(validationScript)</text></g><g class="message" data-participant-1="Maxima" data-participant-2="Piecewise"><polygon fill="#181818" points="1114.1909,615.5547,1104.1909,619.5547,1114.1909,623.5547,1110.1909,619.5547" style="stroke:#181818;stroke-width:1;"/><line style="stroke:#181818;stroke-width:1;stroke-dasharray:2.0,2.0;" x1="1108.1909" x2="1424.5498" y1="619.5547" y2="619.5547"/><text fill="#000000" font-family="sans-serif" font-size="13" lengthAdjust="spacing" textLength="130.6157" x="1120.1909" y="614.4888">New Maxima output</text></g><g class="message" data-participant-1="Piecewise" data-participant-2="Maxima"><polygon fill="#181818" points="1413.5498,644.6875,1423.5498,648.6875,1413.5498,652.6875,1417.5498,648.6875" style="stroke:#181818;stroke-width:1;"/><line style="stroke:#181818;stroke-width:1;" x1="1103.1909" x2="1419.5498" y1="648.6875" y2="648.6875"/><text fill="#000000" font-family="sans-serif" font-size="13" lengthAdjust="spacing" textLength="160.8813" x="1110.1909" y="643.6216">Execute validation script</text></g><g class="message" data-participant-1="Maxima" data-participant-2="Piecewise"><polygon fill="#181818" points="1114.1909,673.8203,1104.1909,677.8203,1114.1909,681.8203,1110.1909,677.8203" style="stroke:#181818;stroke-width:1;"/><line style="stroke:#181818;stroke-width:1;stroke-dasharray:2.0,2.0;" x1="1108.1909" x2="1424.5498" y1="677.8203" y2="677.8203"/><text fill="#000000" font-family="sans-serif" font-size="13" lengthAdjust="spacing" textLength="136.5508" x="1120.1909" y="672.7544">Mathematical results</text></g><g class="message" data-participant-1="Piecewise" data-participant-2="Controller"><polygon fill="#181818" points="326.5659,702.9531,316.5659,706.9531,326.5659,710.9531,322.5659,706.9531" style="stroke:#181818;stroke-width:1;"/><line style="stroke:#181818;stroke-width:1;stroke-dasharray:2.0,2.0;" x1="320.5659" x2="1102.1909" y1="706.9531" y2="706.9531"/><text fill="#000000" font-family="sans-serif" font-size="13" lengthAdjust="spacing" textLength="113.7183" x="332.5659" y="701.8872">Calculation result</text></g><g class="message" data-participant-1="Controller" data-participant-2="Client"><polygon fill="#181818" points="39.2651,732.0859,29.2651,736.0859,39.2651,740.0859,35.2651,736.0859" style="stroke:#181818;stroke-width:1;"/><line style="stroke:#181818;stroke-width:1;stroke-dasharray:2.0,2.0;" x1="33.2651" x2="314.5659" y1="736.0859" y2="736.0859"/><text fill="#000000" font-family="sans-serif" font-size="13" lengthAdjust="spacing" textLength="120.6118" x="45.2651" y="731.02">200 OK with result</text></g><!--SRC=[jLFBRjim4BppAnOv9O1b1qPF1XoWK6FaWIG6rEREKkjwMpu4aeeT5FsOVaC_8JzMIg8YoatIItiIICxCxiokkF36GYu9jMSLjvu4LLnxEDgOsXBQp67ukAamsbiZ9ThfLtS4t47-VFCMCLDyJufFm-c11FRaeZk-p7pWaahkoUXfxKdsdFldwp6j8XIu8uTzhobftJ-EEJTjLv2_BrfKTsIi2mAoiyGTB61zLto46Qze5bli2issZnNQBsWKUal2iOGK9AB7m1T6LRN7Yn6yQ3MEDxKMZQS9X4SovGI-tTRgXFNi83GO3ren75nrdKJOfGu5M0BCHWqa3ojE4ij1_j3hk_aSFkdA6e7EySyIuLnxyeyZSmsfYse1ty7LeW4lOCEbmmaCy_k0FfI37umjbx49GK-_D9ploHl7ORba_ytfcZkNEZqRbY40SOyYpAIR_9NBZL9SbyT3xuMmLFaJDf22GjoRHJ3GqXElu5e2Yv3ie5xIc4LNI-_6oYFhVxfe0ioVVafHImCbWkJGBb2Ru4WeBIfuGnWoxFPsPUpmMxnjJ_qrdbVitkAkLpErRqRsZtAyuNwBAY23jvUIFDpdF4Om1F_g9izFJ-7k6dRajn7w6m00]--></g></svg>